<?xml version="1.0" encoding="utf-8"?>
<!-- Generator: Adobe Illustrator 25.2.1, SVG Export Plug-In . SVG Version: 6.00 Build 0)  -->
<svg version="1.1" id="Layer_1" xmlns="http://www.w3.org/2000/svg" xmlns:xlink="http://www.w3.org/1999/xlink" x="0px" y="0px"
	 viewBox="0 0 1920 1080" style="enable-background:new 0 0 1920 1080;" xml:space="preserve">
<style type="text/css">
	.st0{fill:#2A3460;}
	.st1{fill:#2F3963;}
	.st2{fill:#27325E;}
	.st3{fill:#2C3661;}
	.st4{fill:#FEFEFE;}
	.st5{fill:#9E695A;}
	.st6{fill:#D39D8D;}
	.st7{fill:#916054;}
	.st8{fill:#383A5D;}
	.st9{fill:#AC7767;}
	.st10{fill:#B27E70;}
	.st11{fill:#464669;}
	.st12{fill:#BD8777;}
	.st13{fill:#4E4661;}
	.st14{fill:#855C5A;}
	.st15{fill:#35395D;}
	.st16{fill:#634E5E;}
	.st17{fill:#434263;}
	.st18{fill:#654F5C;}
	.st19{fill:#48415C;}
	.st20{fill:#36395D;}
	.st21{fill:#2E3761;}
	.st22{fill:#36395E;}
	.st23{fill:#53465C;}
	.st24{fill:#534961;}
	.st25{fill:#46405C;}
	.st26{fill:#635971;}
	.st27{fill:#624C5A;}
	.st28{fill:#2E365E;}
	.st29{fill:#7D5756;}
	.st30{fill:#C9998D;}
	.st31{fill:#79595C;}
	.st32{fill:#6E5968;}
	.st33{fill:#956860;}
	.st34{fill:#7C5756;}
	.st35{fill:#3C3D60;}
	.st36{fill:#6A505A;}
	.st37{fill:#3C3C5E;}
	.st38{fill:#4F445C;}
	.st39{fill:#E1AFA1;}
	.st40{fill:#865C55;}
	.st41{fill:#846F7C;}
	.st42{fill:#6E525B;}
	.st43{fill:#825A56;}
	.st44{fill:#7B5B60;}
	.st45{fill:#594759;}
	.st46{fill:#94655B;}
	.st47{fill:#434060;}
	.st48{fill:#423D5B;}
	.st49{fill:#A07F82;}
	.st50{fill:#905F54;}
	.st51{fill:#57475A;}
	.st52{fill:#805957;}
	.st53{fill:#8C6F75;}
	.st54{fill:#816772;}
	.st55{fill:#5B4959;}
	.st56{fill:#5C4958;}
	.st57{fill:#4E445D;}
	.st58{fill:#7C5C61;}
	.st59{fill:#916257;}
	.st60{fill:#634F5E;}
	.st61{fill:#584C63;}
	.st62{fill:#805B5A;}
	.st63{fill:#524459;}
	.st64{fill:#7C5857;}
	.st65{fill:#50455D;}
	.st66{fill:#745458;}
	.st67{fill:#7B5756;}
	.st68{fill:#644E5D;}
	.st69{fill:#3F3D5D;}
	.st70{fill:#5A4B5F;}
	.st71{fill:#78585C;}
	.st72{fill:#935F52;}
	.st73{fill:#604E5E;}
	.st74{fill:#885B54;}
	.st75{fill:#645365;}
	.st76{fill:#825D5C;}
	.st77{fill:#755B65;}
	.st78{fill:#877483;}
	.st79{fill:#383D63;}
	.st80{fill:#4C4A6A;}
	.st81{fill:#7E646E;}
	.st82{fill:#6D5867;}
	.st83{fill:#53485F;}
	.st84{fill:#825955;}
	.st85{fill:#644E5C;}
	.st86{fill:#996A5F;}
	.st87{fill:#29335E;}
	.st88{fill:#353960;}
	.st89{fill:#624E5E;}
	.st90{fill:#7E5A59;}
	.st91{fill:#745E6C;}
	.st92{fill:#956255;}
	.st93{fill:#564B62;}
	.st94{fill:#4E435B;}
	.st95{fill:#6A4E57;}
	.st96{fill:#976B63;}
	.st97{fill:#413F5F;}
	.st98{fill:#8C6158;}
	.st99{fill:#755D69;}
	.st100{fill:#AB8B8E;}
	.st101{fill:#755457;}
	.st102{fill:#8B6059;}
	.st103{fill:#755558;}
	.st104{fill:#926761;}
	.st105{fill:#976B62;}
	.st106{fill:#815956;}
	.st107{fill:#815C5B;}
	.st108{fill:#885E58;}
	.st109{fill:#906B6A;}
	.st110{fill:#8C6460;}
	.st111{fill:#685261;}
	.st112{fill:#55465C;}
	.st113{fill:#3B3D61;}
	.st114{fill:#665363;}
	.st115{fill:#715B69;}
	.st116{fill:#765456;}
	.st117{fill:#8E7884;}
	.st118{fill:#5E5670;}
	.st119{fill:#424163;}
	.st120{fill:#604B59;}
	.st121{fill:#554A62;}
	.st122{fill:#8B5C52;}
	.st123{fill:#8E635A;}
	.st124{fill:#D2A399;}
	.st125{fill:#625469;}
	.st126{fill:#92747A;}
	.st127{fill:#7D6067;}
	.st128{fill:#A18083;}
	.st129{fill:#A4786F;}
	.st130{fill:#C2958B;}
	.st131{fill:#8A6665;}
	.st132{fill:#584D64;}
	.st133{fill:#6A5562;}
	.st134{fill:#956D6A;}
	.st135{fill:#554D68;}
	.st136{fill:#7A687A;}
	.st137{fill:#E5B4A7;}
	.st138{fill:#AB7B70;}
	.st139{fill:#A0726A;}
	.st140{fill:#6B525E;}
	.st141{fill:#414162;}
	.st142{fill:#363C62;}
	.st143{fill:#52485F;}
	.st144{fill:#7F6066;}
	.st145{fill:#614C5B;}
	.st146{fill:#434160;}
	.st147{fill:#885C55;}
	.st148{fill:#3A3D62;}
	.st149{fill:#55485D;}
	.st150{fill:#665A70;}
	.st151{fill:#835954;}
	.st152{fill:#484461;}
	.st153{fill:#404061;}
	.st154{fill:#67505D;}
	.st155{fill:#8F5E53;}
	.st156{fill:#58495C;}
	.st157{fill:#7B616A;}
	.st158{fill:#8A5D54;}
	.st159{fill:#56495D;}
	.st160{fill:#845B57;}
	.st161{fill:#604D5D;}
	.st162{fill:#4C4661;}
	.st163{fill:#464260;}
	.st164{fill:#544D67;}
	.st165{fill:#5C4D5F;}
	.st166{fill:#865C57;}
	.st167{fill:#4D4967;}
	.st168{fill:#6B515C;}
	.st169{fill:#60556C;}
	.st170{fill:#A4776F;}
	.st171{fill:#765458;}
	.st172{fill:#55485C;}
	.st173{fill:#7A595D;}
	.st174{fill:#424262;}
	.st175{fill:#715760;}
	.st176{fill:#4C455F;}
	.st177{fill:#544B65;}
	.st178{fill:#765559;}
	.st179{fill:#634D5A;}
	.st180{fill:#6E5259;}
	.st181{fill:#664E5A;}
	.st182{fill:#72555C;}
	.st183{fill:#7A585B;}
	.st184{fill:#5C546D;}
	.st185{fill:#8C6A6B;}
	.st186{fill:#5C4E63;}
	.st187{fill:#895E58;}
	.st188{fill:#645363;}
	.st189{fill:#45415F;}
	.st190{fill:#6C5C6E;}
	.st191{fill:#7A5C63;}
	.st192{fill:#815A57;}
	.st193{fill:#8A5D55;}
	.st194{fill:#6D5969;}
	.st195{fill:#313962;}
	.st196{fill:#6B5058;}
	.st197{fill:#8F5F53;}
	.st198{fill:#634D5B;}
	.st199{fill:#404266;}
	.st200{fill:#414060;}
	.st201{fill:#7E5755;}
	.st202{fill:#6E555F;}
	.st203{fill:#454362;}
	.st204{fill:#916157;}
	.st205{fill:#87676A;}
	.st206{fill:#8D625C;}
	.st207{fill:#604E60;}
	.st208{fill:#915F52;}
	.st209{fill:#4F4761;}
	.st210{fill:#855A55;}
	.st211{fill:#464362;}
	.st212{fill:#936358;}
	.st213{fill:#8A5C54;}
	.st214{fill:#6D525A;}
	.st215{fill:#6B5563;}
	.st216{fill:#3D3C5C;}
	.st217{fill:#855953;}
	.st218{fill:#936154;}
	.st219{fill:#845953;}
	.st220{fill:#875B53;}
	.st221{fill:#AA7567;}
	.st222{fill:#A06C5E;}
	.st223{fill:#B17D6E;}
	.st224{fill:#C28D7E;}
	.st225{fill:#CF9A8B;}
	.st226{fill:#B38174;}
	.st227{fill:#CA9586;}
	.st228{fill:#B98577;}
	.st229{fill:#966357;}
	.st230{fill:#494A6B;}
	.st231{fill:#5D5773;}
	.st232{fill:#4A496A;}
	.st233{fill:#906866;}
	.st234{fill:#6A515B;}
	.st235{fill:#59516C;}
	.st236{fill:#796778;}
	.st237{fill:#B37E6E;}
	.st238{fill:#866D77;}
	.st239{fill:#94655C;}
	.st240{fill:#716477;}
	.st241{fill:#6E555E;}
	.st242{fill:#594C60;}
	.st243{fill:#454260;}
	.st244{fill:#7E5D5F;}
	.st245{fill:#434162;}
	.st246{fill:#615061;}
	.st247{fill:#AF8B8A;}
	.st248{fill:#594B60;}
	.st249{fill:#5E4C5E;}
	.st250{fill:#815D5D;}
	.st251{fill:#675363;}
	.st252{fill:#825B58;}
	.st253{fill:#434569;}
	.st254{fill:#625870;}
	.st255{fill:#7D6066;}
	.st256{fill:#86605F;}
	.st257{fill:#A47061;}
	.st258{fill:#916D6C;}
	.st259{fill:#90635B;}
	.st260{fill:#896564;}
	.st261{fill:#484463;}
	.st262{fill:#D6A192;}
	.st263{fill:#EAB3A2;}
	.st264{fill:#F0BBAB;}
	.st265{fill:#DBA797;}
	.st266{fill:#D7A291;}
	.st267{fill:#F0BBAC;}
	.st268{fill:#F1BBA9;}
	.st269{fill:#E8B1A0;}
	.st270{fill:#E0A998;}
	.st271{fill:#353A61;}
	.st272{fill:#815E5E;}
	.st273{fill:#383C62;}
	.st274{fill:#6F5B6A;}
	.st275{fill:#363B62;}
	.st276{fill:#6C5B6D;}
	.st277{fill:#AA7C72;}
	.st278{fill:#4F4762;}
	.st279{fill:#77585E;}
	.st280{fill:#AC7667;}
	.st281{fill:#685C73;}
	.st282{fill:#806A78;}
	.st283{fill:#846870;}
	.st284{fill:#796370;}
	.st285{fill:#5D5065;}
	.st286{fill:#C0948D;}
	.st287{fill:#695C70;}
	.st288{fill:#967270;}
	.st289{fill:#AE8077;}
	.st290{fill:#927275;}
	.st291{fill:#9F726A;}
	.st292{fill:#8B5E56;}
	.st293{fill:#7E5E62;}
	.st294{fill:#776270;}
	.st295{fill:#8E6B6C;}
	.st296{fill:#665566;}
	.st297{fill:#A47E7D;}
	.st298{fill:#E0AA99;}
	.st299{fill:#DFA998;}
	.st300{fill:#E6B0A0;}
	.st301{fill:#6D515A;}
	.st302{fill:#343860;}
	.st303{fill:#2F3761;}
	.st304{fill:#7F5D5E;}
	.st305{fill:#2D3762;}
	.st306{fill:#2E3863;}
	.st307{fill:#776372;}
	.st308{fill:#3B3E60;}
	.st309{fill:#333A62;}
</style>
<g>
	<path class="st0" d="M1004.19,630.75c-17.68,0-35.35,0-53.03,0c-3.79-3.31-4.82-8.32-7.51-12.32c-4.84-7.18-8.13-15.22-12.13-22.87
		c-1.26-2.4-1.93-5.08-3.67-7.27c-0.93-1.18-1.2-2.72-0.5-4.24c0.33-0.51,0.76-0.85,1.36-0.89c-0.04-0.02,0.13-0.25,0.1-0.27
		c-0.1-0.25-0.16-0.47-0.24-0.72c-0.11-1.02-0.81-1.72-1.27-2.54c-0.16-0.26-0.28-0.55-0.38-0.83c-0.19-0.39-0.47-0.72-0.86-0.95
		c-0.29-0.12-0.54-0.29-0.79-0.47c-0.39-0.3-0.7-0.67-0.96-1.09c-0.17-0.29-0.27-0.61-0.33-0.94c-0.05-0.32-0.11-0.65-0.18-0.97
		c-0.41-1.18-0.64-2.46-1.81-3.2c-0.61-0.39-1.22-0.73-1.98-0.71c-0.61,0.14-1.22,0.25-1.85,0.17c-1.08-0.38-2.27-0.34-3.31-0.9
		c-0.61-0.4-0.91-0.98-0.98-1.69c-0.06-0.68,0.27-1.29,0.37-1.94c0.13-0.62,0.1-1.24-0.05-1.84c-0.28-0.77-0.96-1.16-1.58-1.6
		c-0.12-0.11-0.23-0.23-0.35-0.34c-0.09-0.14-0.17-0.28-0.25-0.42c-0.1-0.3-0.11-0.61-0.06-0.93c0.18-0.72,0.92-1.1,1.06-1.83
		c-0.01-0.43-0.15-0.83-0.24-1.26c-0.14-1.03-0.62-1.86-1.42-2.5c-0.26-0.2-0.49-0.42-0.72-0.66c-0.4-0.51-0.87-0.95-1.28-1.45
		c-0.36-0.55-0.53-1.15-0.42-1.8c0.07-0.27,0.21-0.52,0.39-0.74c0.23-0.27,0.53-0.49,0.73-0.78c0.01-0.23,0-0.45-0.05-0.68
		c-0.1-0.25-0.16-0.5-0.22-0.76c-0.07-0.6-0.32-1.12-0.58-1.64c-0.6-1.13-1.63-2.07-1.54-3.51c0-0.63,0.06-1.27-0.06-1.91
		c-0.06-0.67-0.06-1.33,0.08-1.98c0.08-0.33,0.22-0.64,0.4-0.93c0.42-0.5,0.84-1,1.24-1.51c0.18-0.29,0.45-0.56,0.15-1.05
		c-0.26-0.26-0.74-0.38-1.12-0.68c-0.27-0.22-0.49-0.48-0.66-0.78c-0.27-0.65-0.49-1.3-0.19-2c0.46-0.68,0.84-1.4,1.06-2.2
		c0.73-0.61,0.76-1.69,1.48-2.3c0.59-0.3,0.97-0.16,1.08,0.52c0-0.01,0.3-0.14,0.3-0.14s-0.32-0.04-0.32-0.06
		c-0.34-0.69-0.77-0.53-1.22-0.14c-0.31,0.06-0.58-0.02-0.81-0.23c-0.25-0.47-0.1-0.89,0.15-1.31c0.63-0.67,0.51-1.46,0.36-2.25
		c0.05-0.31,0.17-0.59,0.35-0.84c0.39-0.4,0.78-0.81,0.33-1.39c0.01,0.02-0.09-0.31-0.08-0.3c0.01,0.01-0.29,0.13-0.28,0.15
		c0.28-0.01,0.46,0.12,0.53,0.4c0,0.28-0.07,0.53-0.21,0.76c-0.63,0.49-0.91,1.08-0.56,1.87c0.07,0.46,0.08,0.91-0.23,1.31
		c-0.72,0.81-0.78,1.68-0.28,2.62c0.03,0.56-0.24,0.99-0.6,1.38c-0.4,1.05-0.82,2.09-2.07,2.39c-2-0.25-3.13-1.67-3.66-3.34
		c-2.33-7.33-5.73-14.23-7.99-21.63c-2.2-7.2-4.53-14.41-7.25-21.48c-2.22-5.78-3.98-11.74-5.06-17.86
		c-0.84-4.8-3.42-9.07-3.99-13.94c-0.19-1.66-0.42-3.23,0.94-4.52c16.68,0,33.36,0,50.04,0c1.83,1.64,2.81,3.81,3.38,6.1
		c2.15,8.67,5.67,16.91,7.87,25.57c0.44,1.74,0.97,3.36-0.25,4.95c-0.27,0.46-0.6,0.89-0.97,1.28c-0.45,0.48-0.9,0.97-1.42,1.38
		c-0.53,0.32-1.12,0.51-1.7,0.7c-0.42,0.13-0.84,0.27-1.21,0.53c-0.64,0.58-1.3,1.14-1.74,1.89c-0.11,0.21-0.21,0.42-0.27,0.65
		c0.03,0.37,0.22,0.65,0.48,0.89c0.21,0.15,0.4,0.31,0.61,0.45c0.34,0.19,0.7,0.26,1.08,0.25c0.39-0.03,0.74-0.14,1.05-0.37
		c0.27-0.31,0.47-0.66,0.57-1.06c0.05-0.62-0.04-1.24,0.14-1.85c0.37-1.06,1.07-1.76,2.17-2.02c0.36,0.01,0.69,0.12,0.99,0.32
		c0.54,0.51,0.71,1.17,0.8,1.87c0.26,0.93,0.49,1.87,0.78,2.79c0.2,0.62,0.48,1.19,0.92,1.69c0.22,0.3,0.37,0.63,0.48,0.97
		c2.96,6.99,5.46,14.16,8.18,21.23c0.73,1.89,1.39,3.78,0.07,5.69c-0.41,0.46-0.97,0.72-1.43,1.12c-0.51,0.42-0.72,0.98-0.82,1.62
		c-1.23,8.04-0.99,16.04,0.01,24.12c5.36,1.7,10.5,0.3,15.49,1.05c1.34,0.46,1.75,1.68,2.24,2.82c4.02,9.39,8.51,18.55,13.42,27.51
		c1.27,2.32,2.1,4.78,1.69,7.51c-1.16,1.36-2.52,2.24-4.4,1.91c-0.82-0.27-0.72-1.35-1.4-1.65c0.05,0.05-0.04,0.02-0.02,0.04
		c0.51,0.22,0.57,0.67,0.67,1.12c0.24,0.87-0.03,1.58-0.65,2.17c-0.26,0.18-0.55,0.29-0.86,0.35c-0.44-0.05-0.87-0.22-1.31-0.26
		c-0.28,0-0.57,0.03-0.84,0.11c-0.39,0.19-0.79,0.36-1.22,0.45c-0.29,0.06-0.58,0.07-0.88,0.05c-0.44-0.06-0.88-0.04-1.32,0.06
		c-0.3,0.05-0.6,0.09-0.9,0.12c-0.61-0.07-1.16-0.36-1.77-0.42c-0.79-0.08-1.54,0.16-2.3,0.34c-0.63,0.14-1.14,0.64-1.82,0.58
		c-0.31-0.06-0.59-0.18-0.84-0.38c-0.17-0.23-0.28-0.5-0.33-0.77c-0.09-0.34-0.26-0.61-0.7-0.59c-0.57,0.06-1.12,0-1.66-0.13
		c-0.55-0.11-1.04-0.42-1.6-0.5c-0.26,0.02-0.51,0.07-0.76,0.15c-0.35,0.21-0.6,0.53-0.92,0.77c-0.24,0.16-0.49,0.3-0.75,0.42
		c-0.44,0.09-0.86,0.24-1.32,0.23c-0.48-0.12-0.81-0.42-1.1-0.8c-0.2-0.24-0.43-0.46-0.68-0.66c-0.91-0.75-1.85,0.01-2.77-0.05
		c-0.94-0.27-1.94-0.16-2.87-0.5c-0.78-0.44-1.53-0.9-1.22-1.98c-0.01,0.03,0.1-0.19,0.1-0.19s-0.13-0.21-0.16-0.18
		c-0.22,0.1-0.42,0.15-0.63,0.16c-0.21,0.01-0.41-0.02-0.58-0.09c0.02,0.01-0.11,0.17-0.09,0.18c0.14,0.14,0.25,0.27,0.38,0.4
		c0.19,0.12,0.36,0.26,0.53,0.41c0.2,0.2,0.38,0.39,0.57,0.6c0.62,0.55,1.28,0.97,2.12,1c0.77,0,1.51,0.25,2.27,0.35
		c0.75-0.03,1.46-0.54,2.24-0.19c0.49,0.35,0.86,0.8,1.2,1.29c0.23,0.17,0.49,0.29,0.78,0.32c0.57-0.1,1.13-0.23,1.67-0.45
		c0.42-0.2,0.86-0.27,1.33-0.21c0.6,0.12,1.15,0.43,1.77,0.47c0.94,0.09,1.78,0.52,2.65,0.84c0.94,0.33,1.84,0.26,2.68-0.3
		c0.43-0.16,0.87-0.23,1.32-0.15c0.55,0.09,1.11,0.07,1.67-0.05c0.6-0.12,1.18,0.15,1.78,0.11c0.46-0.09,0.92-0.17,1.39-0.22
		c1.36,0.37,2.55-0.53,3.86-0.52c0.68,0.21,1.35,0.29,1.98-0.15c1.34-0.97,2.96-1.28,4.44-1.92c2.81-1.07,4.16,0.79,5.3,2.8
		c4.96,8.76,9.78,17.6,14.7,26.37c0.98,1.74,2.16,3.35,3.09,5.1C1004.83,627.24,1005.79,628.95,1004.19,630.75z"/>
	<path class="st1" d="M966.1,450c27.63,0,55.27,0,82.9,0c0,60.25,0,120.5,0,180.75c-0.5,0-1,0-1.49,0c-1.9-1.64-3.45-3.62-4.76-5.73
		c-9.88-16.02-19.48-32.2-28.03-48.99c-1.19-2.33-2.51-4.59-3.74-6.89c-0.45-0.75-0.44-1.64-0.71-2.44c-0.05-0.3-0.04-0.6,0-0.89
		c0.03-0.25,0.09-0.51,0.13-0.76c-0.01-0.26-0.09-0.48-0.3-0.67c-0.92-0.46-1.7-1.04-2.14-1.99c-6.54-12.32-12.36-25-17.8-37.83
		c-3.93-9.28-7.8-18.63-10.72-28.31c-0.63-2.08-2-3.71-3.38-5.33c-0.29-0.5-0.41-1.04-0.41-1.62c0.02-0.38,0.12-0.74,0.29-1.08
		c0.62-0.97,1.69-1.35,2.57-1.97c0.34-0.1,0.69-0.13,1.04-0.09c0.51,0.13,0.91,0.42,1.19,0.87c0.3,0.54,0.34,1.16,0.48,1.73
		c0.23,0.35,0.55,0.56,0.96,0.63c0.63,0.05,0.98-0.33,1.27-0.8c0.8-1.21-0.22-1.39-0.96-1.73c-0.57-0.25-0.97-0.73-1.52-1
		c-0.73-0.3-1.52-0.04-2.27-0.23c-0.81-0.22-1.52-0.71-2.38-0.79c-0.77-0.12-1.42-0.43-1.86-1.11c-2.89-8.78-5.4-17.67-8.38-26.42
		C965.32,454.93,963.93,452.44,966.1,450z"/>
	<path class="st2" d="M912.33,561.75c0.25,0,0.5,0,0.75,0c0.33,0.77,1.16,0.96,1.71,1.49c0.13,0.63-0.25,1.23-0.09,1.86
		c-0.21,0.88,0.31,1.79-0.12,2.65c0.11,0.57-0.37,1.44,0.75,1.5c0.76,0.31,1.66,0.1,2.38,0.59c0.77,1.04,1.34,2.23,2.22,3.2
		c0.29,0.91,0.77,1.7,1.53,2.3c0.97,0.8,2,1.53,2.78,2.53c0.42,0.61,0.77,1.29,1.48,1.63c0.49,0.33,0.96,0.69,1.36,1.14
		c0.2,0.22,0.35,0.48,0.48,0.75c0.2,0.54,0.51,1.06,0.5,1.67c-0.01,0.15-0.02,0.29-0.03,0.44c-0.51,3.27,1.63,5.15,3.71,7.05
		c0,1.01,0,2,0,3.29c0.68,0.61,1.51,1.34,2.32,2.06c-0.57,3.3,1.94,4.82,3.69,6.76c0,1,0,1.99,0,2.98c0.71,0.72,1.42,1.42,2.22,2.22
		c-0.45,3.51,2.36,5.22,4.44,7.46c0,0.67,0,1.4,0,2.14c0.26,0.29,0.51,0.55,0.72,0.84c0.63,0.86,1.37,1.67,1.82,2.61
		c1.19,2.5,2.35,5.03,3.77,7.4c0.51,0.86,0.36,1.62,0.47,2.44c-26.14,0-52.28,0-78.42,0c-0.67-1.17-0.36-2.45-0.36-3.67
		c-0.02-57.8-0.02-115.61,0-173.41c0-1.22-0.32-2.5,0.36-3.67c2.24,0,4.48,0,6.72,0c0.3,2.38,0.61,4.75,0.91,7.17
		c0.6,1.17,1.23,2.4,2.09,4.08c0,0.59,0,1.68,0,2.64c0.57,0.57,1.01,1.01,1.47,1.48c0.04,1.99,0.05,3.89,1.14,5.86
		c0.8,1.44,0.35,3.59,0.45,5.3c0.93,1.82,1.83,3.58,2.86,5.59c0,0.93,0,2.17,0,3.68c0.71,0.61,1.54,1.33,2.3,1.99
		c0,1.41,0,2.65,0,3.16c1.31,3.43,2.38,6.23,3.71,9.68c0,0.49,0,1.73,0,3.01c0.7,0.68,1.41,1.38,2.17,2.12c0,1.19,0,2.42,0,3.76
		c2.2,1.94,0.99,5.57,3.72,7.43c0,1.05,0,2.14,0,2.95c1.1,1.74,2.05,3.22,3.02,4.75c-0.04,3.2,0.87,6.01,3.79,7.86
		c0.08,0.12,0.16,0.24,0.25,0.36c0.21,0.61,0.83,0.76,1.25,1.14c0,0.25,0,0.5,0,0.75c0.79,0.79,1.11,1.71,0.74,2.82
		c-0.15,0.6-0.38,1.17-0.74,1.68c-0.67,0.65-0.49,1.58-0.75,2.34c-0.1,0.37-0.45,0.79,0.12,1.15c0.16,0.23,0.24,0.47,0.25,0.74
		c-0.04,0.89,0.05,1.76,0.24,2.62c0,0.57-0.01,1.14,0.2,1.68c0.21,0.57,0.39,1.14,0.54,1.72c0.05,0.31,0.04,0.61-0.01,0.92
		c-0.63,0.89-0.16,1.69,0.21,2.5c0.49,0.83,1.58,0.69,2.19,1.34c0.22,0.45,0.28,0.91,0.18,1.4c-0.59,1.19-0.53,2.39,0.01,3.59
		C912.09,560.04,911.25,561.11,912.33,561.75z"/>
	<path class="st3" d="M1011.66,568.5c1.95,1.12,2.93,3.17,3.62,5c1.11,2.96,2.81,5.57,4.18,8.35c1.58,3.22,3.47,6.31,5.37,9.38
		c1.07,1.72,1.51,3.9,2.73,5.57c3.6,4.91,5.84,10.61,9.34,15.59c1.28,1.82,3.52,3.36,3.25,6.1c1.56,1.64,2.63,3.58,3.67,5.57
		c0.49,0.94,1.4,1.66,2.12,2.49c1.04,1.2,1.79,2.53,1.57,4.2c-7.47,0-14.94,0-22.41,0c-4.65-5.73-8.24-12.15-11.85-18.54
		c-4.72-8.36-9.29-16.82-14.2-25.07c-0.58-0.97-1.25-1.87-2.19-2.52c-0.49-0.52-0.91-1.09-1.16-1.76c-0.12-0.87,0.46-1.4,0.92-1.98
		c-0.03,0,0.04-0.36,0.01-0.36c-0.12-0.23-0.21-0.45-0.32-0.68c-0.15-0.23-0.26-0.47-0.38-0.71c-0.3-0.51-0.71-0.93-1.11-1.37
		c-5.04-9.3-9.45-18.91-14.18-28.36c-1-1.99-0.63-4.48-2.36-6.16c-0.38-0.94-0.3-1.88,0.04-2.81c0.98-1.96,2.31-3.78,2.49-6.08
		c1.65-1.45,0.82-4.85,3.98-5.11c1.93,0.77,1.97,2.79,2.8,4.29c0.96,2.11,2.49,4.1,1.35,6.64c-0.37,0.45-0.84,0.74-1.4,0.86
		c-1.02,0.24-2.19,0.19-2.85,1.27c0.34,0.68,1.05,0.56,1.57,0.82c2.29,0.56,5.16-0.33,6.49,2.62c1.52,1.39,0.82,4.34,3.45,4.94
		c1.03-1.2,1.03-1.2-0.73-4.31c-1.1-2.17-1.45-4.66-2.92-6.67c-1.34-2.05-1.03-4.81-2.84-6.66c-1.23-1.5-0.45-3.9-2.29-5.13
		c-0.63-0.73-0.71-1.73-1.01-2.41c-1.24-0.93-2.17-0.33-3.1,0.17c-0.97,0.58-1.4,1.61-2.01,2.5c-1.04,1.81-1.31,3.93-2.25,5.78
		c-0.62,0.98-1.21,2-2.62,1.88c-3.04-1.44-3.7-4.6-4.86-7.24c-4.37-9.92-7.82-20.23-12.21-30.14c-1.55-3.5-2.71-6.87-2.44-10.68
		c-0.01-0.56,0.09-1.1,0.35-1.6c0.44-0.72,1.09-1.3,1.5-2.06c0.29-0.43,0.68-0.74,1.17-0.92c0.66-0.19,1.29-0.04,1.89,0.23
		c0.71,0.23,1.23,0.78,1.89,1.08c0.64,0.14,0.98-0.41,1.47-0.65c0.28-0.16,0.57-0.27,0.87-0.35c0.84-0.06,1.59-0.42,2.4-0.61
		c0.36-0.06,0.71-0.06,1.07-0.02c0.35,0.07,0.67,0.2,0.97,0.38c0.82,0.62,1.09,1.46,0.94,2.42c0.01-0.05,0.14,0.11,0.14,0.11
		s0.1-0.17,0.12-0.21c0.26-0.36,0.58-0.56,0.96-0.71c0.34-0.08,0.66-0.08,1-0.01c0.51,0.19,0.9,0.52,1.2,0.97
		c0.48,0.92,0.5,1.99,0.87,2.94c0.11,0.66,0.28,1.3,0.83,1.75c0.62,0,1.24,0,1.87,0c1.11,1.49,1.03,3.79,3.11,4.64
		c-0.34,1.28-0.86,2.37,0.01,3.87c1.43,2.48,2.55,5.18,3.45,7.91c1.02,3.08,2.09,6.11,3.47,9.05c0.68,1.45,0.86,3.15,1.57,4.58
		c0.67,1.34,0.64,2.98,2.05,4.08c0.66,0.52,0.6,1.94,0.9,2.94c0.13,0.44,0.27,0.9,0.49,1.29c3.82,6.74,6.19,14.18,9.95,20.96
		c1.12,2.02,2.1,4.11,3.13,6.13c-0.37,0.39-0.62,0.66-0.98,1.05c1.51,1.2,3.02,2.4,4.57,3.64c-0.5,0.23-0.99,0.47-1.48,0.69
		c0,0.41,0,0.79,0,1.16c0.45,1.22,2.57,1.19,2.24,3c0,0.25,0,0.5,0,0.75c-0.08,2.08-0.95,2.09-2.24,0.89
		c0.03,0.03-0.01,0.14,0.02,0.18c0.62,0.82,0.5,1.76,0.64,2.65c0,0.34-0.08,0.67-0.23,0.97c-0.72,0.64-1.39,1.35-2.36,1.61
		c-0.31-0.04-0.56-0.18-0.73-0.44c-0.26-0.34-0.59-0.59-1.04-0.61c-0.27-0.01-0.54-0.04-0.79-0.08c-0.2-0.03-0.38-0.14-0.53-0.29
		c0.01,0.02,0.25,0.21,0.27,0.22c0.53,0.2,1.13,0.1,1.61,0.44c0.47,0.49,0.75,1.04,0.58,1.75c-0.29,0.55-0.71,0.81-1.32,0.61
		c0.02,0.01-0.06,0.28-0.04,0.28c0.46,0.08,0.55,0.4,0.58,0.76c0.02,0.18,0,0.37-0.06,0.52c-0.01-0.03,0.2,0.06,0.2,0.04
		s-0.16-0.21-0.16-0.21s0.08-0.24,0.09-0.26c0.06-0.25,0.14-0.46,0.28-0.66c0.26-0.35,0.57-0.64,0.85-0.95
		c0.69-1.48,2.71-1.94,2.9-3.8c0.05-0.35,0.17-0.67,0.36-0.97C1010.32,568.38,1010.91,568.03,1011.66,568.5z"/>
	<path class="st3" d="M996.72,579c0,0.25,0,0.5,0,0.75c0.57,0.79,1.5,0.12,2.16,0.54c0.46,0.55,0.62,1.11,0.08,1.71
		c-0.7,0-1.42-0.08-2.1,0.03c-0.32,0.05-0.59,0.47-0.88,0.72c0.17,0.91,1.23,0.02,1.49,0.75c1.14-0.18,1.77,0.44,2.25,1.39
		c3.47,6.94,8,13.28,11.22,20.36c0.53,1.16,1.31,2.23,2.11,3.22c0.83,1.04,1.41,2.12,1.62,3.45c0.11,0.67,0.29,1.51,0.75,1.9
		c2.55,2.14,3.17,5.5,5.2,7.95c1.65,1.99,2.93,4.19,4.03,6.54c0.4,0.86,0.34,1.62,0.45,2.43c-6.97,0-13.94,0-20.91,0
		c0.48-1.98-1.25-3.24-1.58-4.96c-2.53-2-3.39-5.05-4.68-7.79c-0.83-1.75-2.27-2.98-3.15-4.61c-0.98-1.83-1.73-3.77-2.67-5.62
		c-0.89-1.76-2.03-3.4-2.81-5.2c-0.5-1.16-1.71-1.62-2.16-2.78c-0.46-1.18-1.09-2.29-1.62-3.44c-0.53-1.15-0.96-2.35-1.55-3.47
		c-0.26-0.5-0.81-0.85-1.22-1.26c-0.7,0.36-1.21,0.63-1.72,0.9c-0.26-0.28-0.39-0.61-0.36-0.99c0.18-0.57,0.57-0.91,1.14-1.04
		c1.04,0.1,2.08,0.35,3.11-0.05c0.74-1.24,1.48-2.47,3.02-2.83c0.16-0.19,0.33-0.39,0.45-0.62c0.08-0.29,0.2-0.54,0.33-0.81
		c0.38-0.61,0.92-0.82,1.6-0.69c0.21,0.18,0.53,0.23,0.61,0.51c-0.04-0.02-0.17-0.14-0.21-0.15c-0.14-0.19-0.29-0.31-0.5-0.38
		c-0.83-0.18-1.6,0.44-2.42,0.09c-0.29-0.02-0.57-0.03-0.85,0c-0.24,0.11-0.48,0.21-0.7,0.34c-0.25,0.3-0.47,0.62-0.55,1.02
		c0.02,1.29,0.07,2.58-0.94,3.58c-0.67,0.21-1.35,0.14-2.03,0.11c-0.53-0.18-0.88-0.51-0.98-1.08c-0.76-0.87-0.47-2.59-2.19-2.75
		c0.43-0.15,0.86-0.31,1.59-0.57c-0.37-0.5-0.68-0.93-1-1.36c-0.08,0.06-0.16,0.12-0.25,0.18c-0.09-0.08-0.27-0.18-0.26-0.24
		c0.37-1.81-1.14-2.89-1.93-4.02c-2.47-3.56-3.56-7.74-5.64-11.46c-2.01-3.6-3.68-7.39-5.47-11.12c-0.82-1.7-1.53-3.45-1.29-5.42
		c0.05-0.63,0.21-1.24,0.28-1.86c-0.85-3.35-3.68-1.07-5.42-1.9c-0.88-0.06-1.72-0.3-2.59-0.36c-5.62-0.38-6.71-2.07-5.03-7.71
		c1.23-1.65,3.04-1.25,4.7-1.27c2.31-0.03,4.63,0.1,6.69-1.17c0.57-0.57,0.52-1.07-0.29-1.26c-1.04-0.24-2.1-0.44-3.19-0.42
		c-0.95,0.23-1.89,0.04-2.84,0.02c-1.08,0.2-2.11-0.09-3.15-0.28c-0.69-0.12-1.27-0.43-1.72-0.97c-2.16-5.57-0.67-7.91,5.1-7.93
		c2.22-0.01,4.4-0.15,6.45-1.01c0.59-0.34,0.73-0.71,0.02-1.12c-2.97-1.31-6.1-0.75-9.15-0.9c-1.42-0.07-3.02,0.42-4.05-1.11
		c0.12-1.46,0.05-2.97-0.82-4.14c-1.16-1.55-1.64-3.36-2.1-5.12c-0.44-1.7-2.04-2.99-1.61-4.99c0.1-0.45-0.47-1.02-0.69-1.55
		c-0.76-1.81-1.47-3.63-2.26-5.43c-0.37-0.85-0.85-1.66-1.48-2.86c0-0.64,0-1.77,0-2.89c-0.05-0.56-0.56-0.34-0.85-0.51
		c-0.4-0.21-0.61-0.54-0.65-0.99c0.47-1.34-0.62-1.46-1.68-1.9c0.35-0.41,0.64-0.76,0.93-1.1c0.34-0.38,0.45-0.9,0.74-1.31
		c0.61-0.59,1.19-1.22,1.88-1.73c1.4-0.71,2.62-0.68,3.48,0.81c0.07,0.24-0.01,0.45-0.25,0.58c0.01-0.01,0.3,0.2,0.31,0.18
		s0.06-0.37,0.08-0.38c0.19-0.4,0.27-0.83,0.42-1.23c0.27-0.57,0.66-1.05,1.15-1.45c0.87-0.73,1.97-0.88,2.99-1.24
		c0.15-0.03,0.3-0.05,0.44-0.08c0.28-0.02,0.57,0,0.85,0.06c0.38,0.08,0.74,0.25,1.13,0.31c0.39-0.04,0.77-0.14,1.14-0.28
		c0.56-0.22,1.14-0.29,1.74-0.21c0.87,0.16,1.25,0.93,1.83,1.45c0.21,0.09,0.6,0.16,0.61,0.26c0.16,2.03,0.57,4.09-0.9,6.22
		c0.9,0.15,1.56,0.26,2.17,0.37c0.97,2.69,1.89,5.41,2.93,8.09c1.66,4.29,3.27,8.61,5.06,12.83c1.43,3.37,2.28,7.02,4.28,10.18
		c0.97,1.53,0.88,3.6,2.16,5.07c1.25,1.43,1.21,3.5,2.36,4.99c0.62,0.8,0.67,1.67,0.33,2.59c-0.97,1.87-1.63,3.87-2.28,5.86
		c-1.06,2.07-1.91,4.21-2.13,6.53c0.37,0.48,0.77,0.35,1.18,0.05c0.21-0.22,0.43-0.41,0.65-0.6c1.25-1.19,1.47-2.85,2.03-4.35
		c0.71-0.96,1.11-2.22,2.45-2.58c0.76,0.25,1.51,0.5,2.27,0.74c-0.11,2.24,0.24,3.93,1.37,5.68c1.79,2.79,3.43,5.8,4.44,8.94
		c1.33,4.14,4.01,7.52,5.64,11.47c1.01,2.45,2.15,4.83,2.85,7.4c0.04,0.14,0.4,0.18,0.61,0.27
		C996.6,577.81,997.12,578.17,996.72,579z"/>
	<path class="st3" d="M966.1,450c-0.11,2.54,0.75,4.87,1.59,7.18c0.79,2.17,1.84,4.25,2.16,6.57c0.06,0.45,0.22,0.91,0.44,1.3
		c0.85,1.5,1.49,3.02,0.89,4.67c0.58,0.57,1.03,1,1.65,1.61c-0.47,3.68,1.99,6.66,2.91,10.24c-0.19,0.63-0.43,1.4-0.67,2.17
		c-0.23,0.24-0.51,0.39-0.84,0.44c-0.8-0.07-1.58-0.26-2.37-0.33c-0.74-0.24-1.33-0.89-2.18-0.84c-0.47-0.02-0.93-0.02-1.4-0.02
		c-1.25-0.14-2.4,0.37-3.59,0.6c-0.3,0.03-0.6,0.01-0.89-0.06c-0.55-0.13-1-0.52-1.58-0.6c-0.55,0.02-1.1,0.14-1.66,0.09
		c-0.29,0-0.57,0-0.86,0.03c-0.8,0.08-1.21,0.83-1.89,1.13c-0.49,0.16-0.95,0.12-1.4-0.12c-0.34-0.32-0.44-0.69-0.25-1.13
		c-0.26,0.49-0.33,1.1-0.9,1.38c-0.42,0.19-0.86,0.24-1.29,0.18c0.02,0.02-0.34-0.01-0.34-0.01s-0.36,0.01-0.34,0.04
		c-0.17,0.13-0.35,0.24-0.52,0.36c-0.16,0.15-0.33,0.27-0.5,0.4c-0.14,0.18-0.3,0.35-0.46,0.52c-0.24,0.3-0.53,0.53-0.89,0.68
		c-0.51,0.18-1.01,0.1-1.49-0.06c-0.22-0.03-0.44-0.08-0.65-0.12c-0.22,0.04-0.44,0.07-0.65,0.15c-0.34,0.15-0.68,0.29-1.04,0.39
		c-0.54,0.14-1.09,0.16-1.64,0.11c-0.28-0.01-0.56-0.06-0.83-0.12c-0.77-0.19-1.33,0.26-1.9,0.66c-0.56,0.3-1.16,0.49-1.78,0.61
		c-0.33,0.02-0.65-0.04-0.96-0.15c-0.45-0.27-0.71-0.66-0.75-1.19c0.41-0.58,0.81-1.17,1.32-1.89c-1.84-3.39-3.22-7.09-3.63-11.17
		c-0.17-1.66-1.13-3.23-1.71-4.85c-0.96-2.7-1.67-5.53-2.94-8.07c-0.79-1.57-0.03-3.14-0.69-4.55c-0.63-1.35-1.47-2.62-2.01-4
		c-0.26-0.64-0.04-1.47-0.04-2.21C941.7,450,953.9,450,966.1,450z"/>
	<path class="st4" d="M872.75,450c0,60.25,0,120.5,0,180.75c-0.25,0-0.5,0-0.75,0c0-0.88,0-1.75,0-2.62c0-58.5,0-117,0-175.5
		c0-0.88,0-1.75,0.03-2.62C872.03,450,872.5,450,872.75,450z"/>
	<path class="st5" d="M933.24,552c-1.49,0-2.99,0-4.48,0c-0.74-0.73-1.11-1.6-1.11-2.66c0-7.69-0.05-15.38,0.03-23.06
		c0.01-0.63,0.23-1.21,0.69-1.78c1.01-0.8,2.17-0.83,3.38-0.24c0,7.67,0,15.34,0,23.25c2.08,0,4.03,0,5.97,0
		c0.26,0.58-0.02,1-0.41,1.38C935.73,549.63,934.01,550.19,933.24,552z"/>
	<path class="st6" d="M951.16,523.5c4.79,0,9.58-0.01,14.37,0.01c0.54,0,1.31-0.27,1.31,0.74c-1.7,2.34-4.23,1.44-6.45,1.61
		c-1.58,0.12-3.19,0.07-4.76-0.19c-1.14-0.27-2.03,0.17-2.75,1.05c-1.79,4.46-1.3,9.15-1.12,13.73c0.13,3.23,0.01,6.41-0.28,9.61
		c-0.08,0.89-0.3,1.71-1.15,2.2c-0.74,0.13-1.47,0.24-2.53-0.58c0-8.52,0.01-17.35-0.01-26.18c0-1.37,1.05-1.51,1.87-1.97
		C950.17,523.5,950.67,523.5,951.16,523.5z"/>
	<path class="st7" d="M931.75,524.25c-0.87,0-1.73,0-2.9,0c-0.18,4.65-0.05,9.31-0.08,13.97c-0.02,4.59-0.01,9.18-0.01,13.78
		c-0.62,0-1.23,0-2.1,0c-0.05-0.55-0.14-1.12-0.14-1.68c-0.01-7.92-0.01-15.84,0-23.77c0-1.09-0.26-2.27,1.33-3.05
		c0.88,0,2.1-0.03,3.31,0.03C931.37,523.55,931.55,524,931.75,524.25z"/>
	<path class="st3" d="M949.67,523.5c-0.4,0.33-0.79,0.66-1.38,1.15c0,8.86,0,17.98,0,27.35c0.71,0,1.42,0,2.13,0
		c0.46-0.43,0.95-0.82,1.56-1.01c1.01-0.38,2.06-0.4,3.12-0.32c1.09-0.18,2.18-0.03,3.27-0.08c2.89,0.07,6.03-1.29,8.49,1.4
		c-0.06,1.12-0.93,0.64-1.49,0.75c-5.84,0-11.69,0-17.79,0c-0.29-4.8-0.09-9.62-0.13-14.43c-0.04-4.85-0.01-9.71-0.01-14.82
		C948.25,523.5,948.96,523.5,949.67,523.5z"/>
	<path class="st8" d="M920.54,576c-1.18-0.29-1.61-1.09-1.49-2.25c0.5-1.46-0.6-3.18,0.75-4.5c1.35-1.22,1.59-1.16,2.99,0.75
		c1.23,1.26,0.95,3.27,2.24,4.5c0,0.25,0,0.5,0,0.75c-0.4,0.57-0.6,1.33-1.42,1.48C922.5,576.84,921.53,576.37,920.54,576z"/>
	<path class="st9" d="M933.24,552c-0.26-0.51-0.53-1.02-0.82-1.59c0.25-0.38,0.5-0.75,0.73-1.1c-0.2-0.26-0.4-0.5-0.85-1.06
		c1.76,0,3.22,0,4.68,0c1.36,1.25,1.02,2.5,0,3.75C935.73,552,934.49,552,933.24,552z"/>
	<path class="st10" d="M936.97,552c0-1.25,0-2.5,0-3.75c0.25-0.25,0.5-0.5,0.75-0.75c1.44,0,2.88-0.04,4.32,0.03
		c0.32,0.02,0.61,0.47,0.91,0.72c-1.36,0.96-1.64,2.78-2.99,3.75C938.97,552,937.97,552,936.97,552z"/>
	<path class="st11" d="M961.62,595.5c-0.7,0-1.42,0.08-2.1-0.03c-0.32-0.05-0.59-0.47-0.88-0.72c-0.74-0.91-1.77-1.73-0.89-3.11
		c0.57-0.31,1.12-0.33,1.64,0.11c0.75,0,1.49,0,2.24,0c0.44,0.4,0.78,0.86,0.75,1.5c0,0.25,0,0.5,0,0.75
		C962.45,594.67,962.05,595.09,961.62,595.5z"/>
	<path class="st12" d="M939.96,552c0-1.19,0-2.38,0-3.75c1.11,0,2.05,0,2.99,0c0,1.19,0,2.38,0,3.75
		C941.84,552,940.9,552,939.96,552z"/>
	<path class="st13" d="M981.78,589.5c0.25,0.25,0.5,0.5,0.75,0.75c-0.05,0.45-0.52,0.48-0.75,0.75c-0.25,0.25-0.5,0.5-0.75,0.75
		c-1.32,0.87-2.89,1.15-4.29,1.84c-0.36,0.03-0.68-0.08-0.94-0.34c0.25-0.75,0.5-1.5,0.75-2.25c0.25-0.37,0.5-0.37,0.75,0
		c0.96-0.33,1.91-0.67,2.87-1C980.7,589.82,981.25,589.67,981.78,589.5z"/>
	<path class="st14" d="M919.8,569.25c0.12,0,0.24,0,0.36,0c-0.12,0.69-0.39,1.39-0.32,2.06c0.08,0.76,0.51,1.48,0.68,2.24
		c0.07,0.28-0.15,0.64-0.23,0.91c-0.46-0.26-0.85-0.49-1.24-0.71c-0.39-0.33-0.78-0.66-1.49-1.25c0-0.59,0-1.54,0-2.5
		c0.25-0.34,0.5-0.34,0.75,0C918.8,569.75,919.3,569.5,919.8,569.25z"/>
	<path class="st15" d="M912.33,561.75c-0.36,0.28-0.72,0.57-1.49,1.19c0-1.52,0-2.48,0-3.44c-0.59-0.96-0.59-1.84,0.39-2.56
		c1.13-0.3,1.86,0.39,2.6,1.06c0.46,0,0.91,0,1.94,0c-0.62,0.78-0.91,1.14-1.19,1.5c-0.35,0.35-0.8,0.49-1.24,0.65
		C912.63,560.46,911.6,560.55,912.33,561.75z"/>
	<path class="st16" d="M932.49,492c0.75-1,1.49-2,2.24-3c0.5,0.56,1,0.53,1.49,0c0.11-0.24,0.22-0.49,0.29-0.65
		c0.47,0.26,0.83,0.45,1.2,0.65c0.24,0.22,0.4,0.49,0.45,0.82c-0.06,0.68-0.55,1.14-0.89,1.67c-0.18,0.26-0.39,0.5-0.64,0.71
		c-0.41,0.25-0.79,0.53-1.16,0.85c-0.27,0.19-0.57,0.32-0.89,0.4c-0.5,0.08-0.98,0.01-1.43-0.22
		C932.75,492.93,932.5,492.53,932.49,492z"/>
	<path class="st17" d="M942.95,489.75c0,0.44,0,0.89,0,1.5c-0.88,0-1.56,0-2.24,0c-0.37-0.44-0.19-1.16-0.75-1.5
		c-0.25,0-0.5,0-0.75,0c-0.08-0.13-0.17-0.26-0.25-0.4c0-0.33,0.11-0.61,0.32-0.85c0.52-0.37,1.17-0.49,1.7-0.86
		c0.86-0.51,1.75-0.92,2.78-0.82c0.32,0.12,0.6,0.31,0.82,0.58C944.89,488.78,943.23,488.78,942.95,489.75z"/>
	<path class="st18" d="M926.52,582c0-0.25,0-0.5,0-0.75c-0.49-0.72-0.82-1.47-0.55-2.37c0.48-0.89,1.12-1.22,2.05-0.63
		c0,0.37,0,0.74,0,1.28c0.73,0.14,1.5,0.29,2.28,0.43c-0.29,1.03-0.54,1.91-0.79,2.78c-0.24,0.24-0.52,0.31-0.85,0.25
		C927.97,582.62,927.13,582.55,926.52,582z"/>
	<path class="st19" d="M920.54,576c0.08-0.2,0.15-0.4,0.17-0.46c0.96,0.16,1.89,0.31,2.82,0.46c0.5,0.53,1,0.08,1.49,0
		c0.25,0.25,0.5,0.5,0.75,0.75c0.8,2.3-0.52,2.47-2.24,2.25c-0.61-0.76-1.22-1.52-1.79-2.24c-0.43,0.33-0.66,0.51-1.19,0.92
		C920.54,576.9,920.54,576.45,920.54,576z"/>
	<path class="st20" d="M908.59,537.75c0-1,0-2,0-3c1.19,0,2.37,0,3.36,0c0.45,0.45,0.7,0.7,1.04,1.05c-0.98,0.66-1.94,1.3-2.91,1.95
		C909.59,537.8,909.09,538.24,908.59,537.75z"/>
	<path class="st21" d="M937.72,492c1.12,0.06,0.63,0.93,0.75,1.5c-1.03,0.4-0.99,1.5-1.49,2.25c-0.11,0.24-0.22,0.49-0.29,0.65
		c-0.47-0.26-0.83-0.45-1.2-0.65c-0.82-0.02-1.6-0.19-2.24-0.75c-0.58-0.63-0.48-1.19,0.17-1.7c1.56,0.41,2.25-1.16,3.45-1.55
		C937.21,491.64,937.49,491.72,937.72,492z"/>
	<path class="st22" d="M912.33,513c0.78-0.97,0.68-2.62,2.24-3c1.24-0.78,1.71-0.17,1.85,1.03c-1.54,0.67-0.13,4.23-3.26,3.35
		C912.67,514.05,912.54,513.5,912.33,513z"/>
	<path class="st23" d="M913.08,513.75c0.39,0.23,0.78,0.45,1.33,0.77c0.09-0.94,0.18-1.86,0.29-3.02c0.46,0,0.92,0,1.37,0
		c0.25-0.3,0.5-0.3,0.75,0c-0.25,0.25-0.5,0.5-0.75,0.75c-0.54,0.75-0.56,1.5,0,2.25c-0.32,0.48-0.64,0.96-0.8,1.21
		c-1.04-0.17-1.92-0.26-2.75-0.49c-0.35-0.09-0.62-0.47-0.93-0.72C912.03,514.15,912.52,513.89,913.08,513.75z"/>
	<path class="st24" d="M974.32,592.5c0.25,0.25,0.5,0.5,0.75,0.75c-0.05,0.45-0.49,0.51-0.75,0.75c-0.3,0.25-0.59,0.69-0.91,0.72
		c-1.19,0.09-2.38,0.03-3.58,0.03c-0.25-0.55,0.01-0.91,0.46-1.19c0.56-0.32,1.28,0.32,1.78-0.31c0.25-0.5,0.5-1,0.75-1.5
		C973.7,591.25,973.9,592.08,974.32,592.5z"/>
	<path class="st25" d="M913.82,558c-0.74-0.29-1.89,0.7-2.24-0.75c-0.46-0.68-1.19-1.27-0.75-2.25c0.25-0.25,0.5-0.5,0.75-0.75
		c0.78,0.63,1.57,1.25,2.24,1.79C913.82,556.83,913.82,557.42,913.82,558z"/>
	<path class="st26" d="M947.43,593.25c-0.36,0-0.73,0-0.81,0c-0.82-0.84-1.5-1.55-2.18-2.25c-0.84-1.12-0.01-1.67,0.75-2.25
		c0.5,0,1,0,1.49,0c0.49,0.25,0.49,0.5,0,0.75c-0.28,0.36-0.57,0.72-1.19,1.5c1.03,0,1.48,0,1.94,0c0.21,0.14,0.39,0.33,0.52,0.55
		c0.13,0.38,0.12,0.76-0.01,1.13C947.79,592.89,947.62,593.08,947.43,593.25z"/>
	<path class="st27" d="M925.03,574.5c-0.39-0.23-0.78-0.46-1.07-0.62c-0.53,0.26-1.02,0.5-1.64,0.81c-0.15-0.55-0.25-0.88-0.36-1.27
		c0.55-0.26,1.05-0.5,1.56-0.74c-0.25-0.91-0.49-1.79-0.74-2.67C924.99,570.77,924.19,573.04,925.03,574.5z"/>
	<path class="st28" d="M923.53,579c0.48-0.25,0.94-0.67,1.43-0.72c1.15-0.12,0.72-0.94,0.81-1.53c0.25,0,0.5,0,0.75,0
		c0.31,0.69,2-0.01,1.49,1.5c-0.57,0.11-1.43-0.37-1.49,0.75c-0.43,0.57-0.77,1.22-1.49,1.5C924.53,580,924.03,579.5,923.53,579z"/>
	<path class="st29" d="M907.85,546c-0.2-0.08-0.4-0.15-0.45-0.17c0.16-0.97,0.31-1.9,0.45-2.83c0.25-0.18,0.5-0.18,0.75,0
		c0,0.61,0,1.23,0,2.09c0.98,0.09,1.99,0.19,3.2,0.31c-0.73,0.58-1.22,0.97-1.71,1.35c-0.16,0.08-0.32,0.16-0.48,0.24
		C908.81,547.04,908.3,546.58,907.85,546z"/>
	<path class="st30" d="M967.59,594.75c-0.37,0.2-0.73,0.4-1.2,0.65c-0.07-0.17-0.18-0.41-0.29-0.65c-0.35-0.65-1.96-0.03-1.49-1.5
		c0.88-0.71,1.91-0.84,2.99-0.75C968.13,593.25,968.28,594,967.59,594.75z"/>
	<path class="st31" d="M916.81,511.5c-0.25,0-0.5,0-0.75,0c0-0.44,0-0.88,0-1.5c-0.62,0-1.06,0-1.49,0c0-0.45,0-0.91,0-1.77
		c0.81,0.41,1.25,0.66,1.72,0.86c0.41,0.17,0.84,0.28,1.31,0.44c-0.31,0.33-0.54,0.58-0.73,0.78c0.23,0.4,0.45,0.8,0.68,1.19
		C917.31,511.5,917.06,511.5,916.81,511.5z"/>
	<path class="st32" d="M952.66,592.5c-1.32-0.46-1.44,0.6-1.84,1.6c-0.18-0.38-0.29-0.61-0.4-0.85c-0.31-0.27-0.73-0.39-0.98-0.75
		c-0.01-0.14-0.01-0.28-0.02-0.42c0.08-0.11,0.16-0.22,0.25-0.34c0.65-0.47,1.3-0.94,1.95-1.41
		C951.96,591.05,952.31,591.78,952.66,592.5z"/>
	<path class="st33" d="M976.56,593.25c1.48-0.53,2.7-1.85,4.48-1.5c0,0.25,0,0.5,0,0.75c-1.49,0.5-2.99,1-4.48,1.5
		c-0.16-0.12-0.31-0.25-0.47-0.38C976.25,593.5,976.4,593.38,976.56,593.25z"/>
	<path class="st34" d="M911.58,554.25c-0.6,0-1.2,0-1.87,0c-0.21,0.46-0.44,0.96-0.95,2.07c-0.07-1.59-0.12-2.58-0.17-3.57
		c0.5-0.46,1-0.42,1.49,0C910.59,553.25,911.08,553.75,911.58,554.25z"/>
	<path class="st35" d="M933.99,493.5c-1.12,0.06-0.63,0.93-0.75,1.5c-0.75-0.75-1.49-1.5-2.24-2.25c0.75-0.5,1.49-0.53,2.24,0
		c0.5,0,1,0,1.49,0C934.89,493.41,934.79,493.81,933.99,493.5z"/>
	<path class="st36" d="M914.57,563.25c-0.44,0-0.87,0-1.49,0c0-0.62,0-1.06,0-1.5c0.39,0.23,0.78,0.45,1.1,0.64
		c0.47-0.25,0.95-0.52,1.55-0.84c0.24,1.03,0.98,1.93-0.41,2.45C914.85,563.97,914.75,563.57,914.57,563.25z"/>
	<path class="st37" d="M925.77,498.75c-0.25-0.25-0.5-0.5-0.75-0.75c0.28-0.74-0.69-1.9,0.75-2.25c1.46-0.46,0.85,1.15,1.49,1.5
		C927.51,498.5,927,498.99,925.77,498.75z"/>
	<path class="st25" d="M914.57,563.25c0.25,0.25,0.5,0.5,0.75,0.75c0.15,0.28,0.29,0.57,0.46,0.84c0.44,0.68,0.56,1.23-0.46,1.41
		c-1.48,0.49-0.83-1.17-1.49-1.5c-0.24-0.11-0.48-0.22-0.62-0.29C913.7,564.02,914.14,563.64,914.57,563.25z"/>
	<path class="st38" d="M927.27,497.25c-0.25-0.31-0.48-0.64-0.75-0.93c-0.22-0.22-0.49-0.38-0.74-0.57c0.3-0.46,0.59-0.92,0.86-1.33
		c0.77,0.21,1.44,0.4,2.12,0.58c0.23,0.2,0.38,0.45,0.42,0.76c-0.03,0.31-0.17,0.56-0.42,0.74c-0.38-0.21-0.75-0.42-1.3-0.72
		C927.4,496.26,927.33,496.76,927.27,497.25z"/>
	<path class="st39" d="M957.89,591.75c0.17,0.54,0.36,1.08,0.5,1.63c0.11,0.45,0.17,0.91,0.25,1.37c-0.57-0.11-1.43,0.37-1.49-0.75
		c-0.49-0.38-1.08-0.7-1.03-1.47c0.04-0.71,0.6-1.08,1.03-1.53c0.25,0,0.5,0,0.75,0c0.21,0.17,0.28,0.33,0.21,0.5
		C958.03,591.67,957.96,591.75,957.89,591.75z"/>
	<path class="st40" d="M907.1,532.5c-0.12-1.16,0.31-1.96,1.49-2.25c0.45,0.39,0.9,0.78,1.58,1.36c-0.79,0.3-1.56,0.59-2.32,0.89
		C907.6,532.81,907.35,532.81,907.1,532.5z"/>
	<path class="st41" d="M962.37,593.25c-1.12-0.06-0.63-0.93-0.75-1.5c0.36,0,0.73,0,1.15,0c0.22-0.49,0.44-0.99,0.72-1.6
		C964.23,591.68,963.94,592.71,962.37,593.25z"/>
	<path class="st42" d="M925.11,498.23c-0.18,1.41-0.9,1.93-2.19,2.1c0.35-1.18,0.63-2.12,0.91-3.07
		C924.23,497.56,924.59,497.83,925.11,498.23z"/>
	<path class="st43" d="M910.09,522.75c0-0.25,0-0.5,0-0.75c0.94,0,1.88,0,3.35,0c-1.42,0.95-2.38,1.6-3.35,2.25
		C909.7,523.75,909.64,523.25,910.09,522.75z"/>
	<path class="st44" d="M925.77,498.75c0.5-0.5,1-1,1.49-1.5c0.49,0.64,0.99,1.27,1.85,2.38
		C927.67,499.27,926.54,500.14,925.77,498.75z"/>
	<path class="st45" d="M910.09,522.75c0,0.5,0,1,0,1.5c-0.27,0.23-0.3,0.7-0.75,0.75c-0.45,0-0.91,0-1.53,0
		C907.92,523.28,908.7,522.69,910.09,522.75z"/>
	<path class="st46" d="M928.76,495.75c0-0.25,0-0.5,0-0.75c0-0.7,0-1.41,0-2.62c0.95,1.43,1.6,2.4,2.24,3.37
		C930.25,496.29,929.51,496.29,928.76,495.75z"/>
	<path class="st47" d="M928.76,495.75c0.75,0,1.49,0,2.24,0c0,0.95,0,1.89,0,2.84c-0.15,0.03-0.31,0.06-0.46,0.09
		c-0.16-0.67-0.32-1.35-0.5-2.1c-0.36,0.19-0.69,0.37-1.02,0.55c-0.09-0.22-0.17-0.43-0.25-0.63
		C928.76,496.25,928.76,496,928.76,495.75z"/>
	<path class="st48" d="M908.59,528.75c-0.45,0-0.91,0-1.31,0c-0.09-0.46-0.14-0.69-0.22-1.11c0.73-0.36,1.5-0.75,2.28-1.14
		c0,0.5,0,1,0,1.5C909.63,528.79,909.27,528.93,908.59,528.75z"/>
	<path class="st49" d="M961.62,595.5c0.11-0.57-0.37-1.44,0.75-1.5c0.25,0,0.5,0,0.75,0c0.41,0.43,1.18,0.12,1.49,0.75
		c-0.29,0.25-0.56,0.66-0.88,0.72C963.04,595.58,962.32,595.5,961.62,595.5z"/>
	<path class="st50" d="M910.09,552.75c-0.5,0-1,0-1.49,0c-0.15-0.28-0.29-0.57-0.46-0.84c-0.44-0.68-0.56-1.23,0.46-1.41
		c0.68-0.19,0.93,0.06,0.75,0.75C909.59,551.75,909.84,552.25,910.09,552.75z"/>
	<path class="st51" d="M908.59,543c-0.25,0-0.5,0-0.75,0c-0.46-0.45-0.39-0.97-0.18-1.51c0.31-0.26,0.62-0.27,0.93,0.01
		c0.86-0.03,1.76-0.1,1.36,1.5C909.51,543,909.05,543,908.59,543z"/>
	<path class="st52" d="M918.3,570c-0.25,0-0.5,0-0.75,0c-0.74-0.29-1.89,0.7-2.24-0.75c0.16-0.21,0.32-0.6,0.49-0.6
		c0.39-0.01,0.78,0.17,1.86,0.47C917.58,569,917.94,569.5,918.3,570z"/>
	<path class="st53" d="M957.14,591c-0.11,0.57,0.37,1.44-0.75,1.5c-0.25,0.37-0.5,0.37-0.75,0c-0.28-0.36-0.57-0.72-1.19-1.5
		C955.73,591,956.44,591,957.14,591z"/>
	<path class="st54" d="M941.46,495.75c0.87-0.25,1.75-0.5,2.79-0.79c0.08,0.44,0.15,0.86,0.27,1.54c-0.91,0-1.61,0-2.31,0
		c-0.25,0-0.5,0-0.75,0c-0.19-0.17-0.25-0.33-0.19-0.5C941.33,495.84,941.39,495.75,941.46,495.75z"/>
	<path class="st55" d="M909.86,518.75c0.68-1.4,1-2.07,1.28-2.65c0.61,0.31,1.2,0.62,1.98,1.02
		C912.21,517.57,911.39,517.98,909.86,518.75z"/>
	<path class="st56" d="M907.1,532.5c0.25,0,0.5,0,0.75,0c0.25,0.5,0.5,1,0.75,1.5c-0.35,0-0.71,0-1.13,0
		c-0.21,0.46-0.43,0.96-0.65,1.46c-0.17-0.15-0.38-0.26-0.44-0.43C906,534.02,906.74,533.31,907.1,532.5z"/>
	<path class="st57" d="M910.61,532.84c0.87-0.54,1.44-0.89,2.33-1.44c0.07,1.01,0.12,1.67,0.18,2.53
		C912.28,533.57,911.63,533.29,910.61,532.84z"/>
	<path class="st58" d="M937.72,492c-0.25,0-0.5,0-0.75,0c-0.19-0.17-0.25-0.33-0.19-0.5c0.06-0.17,0.13-0.25,0.19-0.25
		c0.25-0.5,0.5-1,0.75-1.5c0.4-0.44,0.67-1.16,1.49-0.75c0,0.25,0,0.5,0,0.75C938.72,490.5,938.22,491.25,937.72,492z"/>
	<path class="st59" d="M914.45,520.54c-0.55-0.09-0.97-0.16-1.61-0.27c0.51-1.04,0.92-1.88,1.61-3.29
		C914.45,518.54,914.45,519.45,914.45,520.54z"/>
	<path class="st60" d="M939.96,587.25c0,0.44,0,0.88,0,1.7c-0.95-0.4-1.59-0.67-2.24-0.95c0.31-0.25,0.64-0.48,0.92-0.76
		c0.22-0.22,0.38-0.49,0.57-0.74C939.97,586.24,940.15,586.56,939.96,587.25z"/>
	<path class="st3" d="M967.59,594.75c0-0.75,0-1.5,0-2.25c0.5,0.25,1,0.5,1.49,0.75c0.54,0.75,0.51,1.5,0,2.25
		C968.59,595.25,968.09,595,967.59,594.75z"/>
	<path class="st61" d="M933.24,495c0.73,0.29,1.89-0.7,2.24,0.75c-0.04,0.92-0.7,0.93-1.21,0.6
		C933.83,496.07,933.58,495.47,933.24,495z"/>
	<path class="st62" d="M921.92,505.11c0,1.19,0,1.85,0,2.69c-0.57-0.1-0.98-0.18-1.73-0.32
		C920.78,506.67,921.2,506.09,921.92,505.11z"/>
	<path class="st63" d="M910.09,522c-0.45,0-0.9,0-1.75,0c0.75-0.97,1.25-1.61,1.75-2.25c0.28,0.22,0.72,0.28,0.75,0.75
		C910.59,521,910.34,521.5,910.09,522z"/>
	<path class="st64" d="M908.59,528.75c0.25-0.25,0.5-0.5,0.75-0.75c0.25,0,0.5,0,0.75,0c0,0.68,0,1.36,0,2.25c-0.61,0-1.05,0-1.49,0
		C908.59,529.75,908.59,529.25,908.59,528.75z"/>
	<path class="st65" d="M914.08,521.75c0.56,1.13,0.97,1.96,1.46,2.94C913.97,524.07,913.97,524.07,914.08,521.75z"/>
	<path class="st66" d="M908.59,537.75c0.39-0.45,0.77-0.9,1.28-1.49c0.07,0.51,0.14,1,0.21,1.49c-0.5,0.5-1,1-1.49,1.5
		C908.59,538.75,908.59,538.25,908.59,537.75z"/>
	<path class="st67" d="M908.59,541.5c-0.25,0-0.5,0-0.75,0c-0.25,0.37-0.5,0.37-0.75,0c0.21-0.38,0.42-0.76,0.65-1.18
		c-0.15-0.16-0.37-0.41-0.78-0.85c0.63-0.09,1.12-0.16,1.62-0.22C908.59,540,908.59,540.75,908.59,541.5z"/>
	<path class="st68" d="M912.96,541.9c-0.71-0.99-1.13-1.57-1.73-2.39c0.75-0.13,1.17-0.21,1.73-0.3
		C912.96,540.05,912.96,540.71,912.96,541.9z"/>
	<path class="st69" d="M910.84,549c0.25,0,0.5,0,0.75,0c0.52,0.75,0.52,1.5,0,2.25c-0.5,0-1,0-1.49,0
		c-0.44-0.37-0.47-0.85-0.38-1.36C909.94,549.4,910.29,549.08,910.84,549z"/>
	<path class="st70" d="M915.94,537.41c-0.71-1-1.12-1.59-1.72-2.43c0.77-0.12,1.18-0.18,1.72-0.26
		C915.94,535.56,915.94,536.23,915.94,537.41z"/>
	<path class="st71" d="M913.88,554.87c0-0.46,0-0.79,0-1.58c0.52,0.46,0.8,0.7,1.07,0.93c0.26-0.24,0.51-0.47,0.93-0.86
		c0.08,0.56,0.13,0.98,0.21,1.51C915.25,554.87,914.6,554.87,913.88,554.87z"/>
	<path class="st72" d="M912.33,561.75c-1.59-0.58-0.38-1.83-0.78-2.94c0.63,0.28,1.08,0.49,1.53,0.69c0.46,0.86-0.32,1.09-0.75,1.5
		C912.33,561.25,912.33,561.5,912.33,561.75z"/>
	<path class="st73" d="M919.19,562.38c0.68,0.6,1.03,0.92,1.4,1.25c-0.72,0.35-1.38,0.67-2.52,1.22
		C918.53,563.83,918.82,563.19,919.19,562.38z"/>
	<path class="st74" d="M913.82,564.75c0.25,0.19,0.52,0.35,0.74,0.57c0.28,0.28,0.5,0.62,0.75,0.93c-0.11,0.57,0.37,1.44-0.75,1.5
		C913.86,566.87,913.73,565.84,913.82,564.75z"/>
	<path class="st75" d="M935.42,574.75c0,1.33,0,1.9,0,2.8c-0.57-0.13-1.03-0.23-1.87-0.42
		C934.22,576.29,934.64,575.75,935.42,574.75z"/>
	<path class="st76" d="M928.76,582.75c0.25,0,0.5,0,0.75,0c0.25,0.25,0.5,0.5,0.75,0.75c0.26,0.17,0.35,0.33,0.26,0.5
		c-0.09,0.17-0.17,0.25-0.26,0.25c-0.75-0.25-1.49-0.5-2.24-0.75C927.82,582.8,928.03,582.52,928.76,582.75z"/>
	<path class="st77" d="M934.67,585.2c0.21,0.38,0.57,1.03,1.16,2.11c-1.15-0.49-1.81-0.77-2.84-1.22
		C933.62,585.76,934.11,585.5,934.67,585.2z"/>
	<path class="st78" d="M963.92,586.96c0-1.04,0-1.37,0-1.83c0.71,0,1.37,0,2.09,0c0.02,0.42,0.04,0.75,0.1,1.66
		c-0.59-0.52-0.85-0.76-1.16-1.03C964.73,586,964.5,586.27,963.92,586.96z"/>
	<path class="st79" d="M945.19,588.75c-0.25,0.75-0.5,1.5-0.75,2.25c-0.5,0.45-1,0.44-1.49,0c0.25-0.5,0.5-1,0.75-1.5
		c-0.5-0.25-0.5-0.5,0-0.75C944.19,588.75,944.69,588.75,945.19,588.75z"/>
	<path class="st3" d="M964.61,594.75c-0.57-0.11-1.43,0.37-1.49-0.75c0.5-0.25,1-0.5,1.49-0.75c0.31,0.25,0.64,0.48,0.92,0.76
		c0.22,0.22,0.38,0.49,0.57,0.74C965.6,594.75,965.11,594.75,964.61,594.75z"/>
	<path class="st80" d="M976.5,585.25c0,1.33,0,1.9,0,2.8c-0.57-0.13-1.03-0.23-1.87-0.42C975.3,586.79,975.72,586.25,976.5,585.25z"
		/>
	<path class="st81" d="M939.96,489.75c0.43,0,0.86,0,1.5,0c-0.33,0.65-0.54,1.07-0.76,1.5c-0.25,0.25-0.5,0.5-0.75,0.75
		C939.96,491.25,939.96,490.5,939.96,489.75z"/>
	<path class="st82" d="M936.97,495.75c0-0.68,0-1.36,0-2.25c0.61,0,1.05,0,1.49,0C937.97,494.25,937.47,495,936.97,495.75z"/>
	<path class="st83" d="M917.53,511.47c0.48,0.04,0.93,0.07,1.42,0.11c0.04,0.45,0.07,0.78,0.11,1.28c-0.45,0.05-0.86,0.09-1.41,0.16
		C917.6,512.4,917.56,511.95,917.53,511.47z"/>
	<path class="st84" d="M910.09,549.75c0,0.5,0,1,0,1.5c-0.25,0-0.5,0-0.75,0c-0.25-0.25-0.5-0.5-0.75-0.75c0-0.25,0-0.5,0-0.75
		c-0.2-0.18-0.28-0.37-0.24-0.58c0.04-0.21,0.09-0.32,0.14-0.32c0.56-0.19,1.01-0.01,1.4,0.41
		C909.96,549.43,910.02,549.59,910.09,549.75z"/>
	<path class="st85" d="M911.58,528.75c0.74,0.38,1.47,0.76,2.46,1.26c-1.08,0.1-1.99,0.89-2.46-0.51c-0.22-0.17-0.3-0.33-0.22-0.5
		C911.43,528.84,911.51,528.75,911.58,528.75z"/>
	<path class="st86" d="M933.24,492.75c-0.75,0-1.49,0-2.24,0c-0.21-0.08-0.42-0.17-1.19-0.48c1.24-0.12,1.96-0.2,2.69-0.27
		C932.74,492.25,932.99,492.5,933.24,492.75z"/>
	<path class="st87" d="M925.03,576c-0.37,0.51-0.73,1.01-1.49,2.06c0-1.16,0-1.61,0-2.06c0.5-0.25,1-0.5,1.49-0.75
		C925.03,575.5,925.03,575.75,925.03,576z"/>
	<path class="st88" d="M939.22,489c-0.5,0.25-1,0.5-1.49,0.75c0-0.25,0-0.5,0-0.75c0.11-0.57-0.37-1.44,0.75-1.5
		c0.49,0.04,0.84,0.28,1.06,0.72C939.57,488.54,939.46,488.8,939.22,489z"/>
	<path class="st89" d="M928.01,578.25c-0.31-0.25-0.64-0.48-0.92-0.76c-0.22-0.22-0.38-0.49-0.57-0.74c0.7,0,1.4,0,2.68,0
		C928.58,577.53,928.3,577.89,928.01,578.25z"/>
	<path class="st90" d="M911.58,528.75c0,0.25,0,0.5,0,0.75c-0.25-0.31-0.48-0.64-0.75-0.93c-0.22-0.22-0.49-0.38-0.74-0.57
		c0.36-0.29,0.71-0.57,1.49-1.2C911.58,527.84,911.58,528.29,911.58,528.75z"/>
	<path class="st91" d="M941.46,495.75c0,0.25,0,0.5,0,0.75c-0.46,0-0.91,0-1.94,0c0.62-0.78,0.91-1.14,1.19-1.5
		C940.96,495.25,941.21,495.5,941.46,495.75z"/>
	<path class="st92" d="M936.23,489c0.03,0.86,0.1,1.76-1.49,1.37c0-0.45,0-0.91,0-1.37C935.23,489,935.73,489,936.23,489z"/>
	<path class="st93" d="M927.28,501.07c0.58,0,0.91,0,1.33,0c0.07,0.38,0.14,0.72,0.21,1.1
		C927.83,502.75,927.21,502.74,927.28,501.07z"/>
	<path class="st94" d="M912.33,561c0.25-0.5,0.5-1,0.75-1.5c0.5,0,1,0,1.49,0C914.28,560.69,913.49,561.12,912.33,561z"/>
	<path class="st95" d="M922.72,500.45c-0.9,0.74-1.32,1.08-1.94,1.59c-0.14-0.72-0.21-1.05-0.32-1.59
		C921.04,500.45,921.54,500.45,922.72,500.45z"/>
	<path class="st96" d="M939.22,488.25c-0.25-0.25-0.5-0.5-0.75-0.75c0.25-0.25,0.5-0.5,0.75-0.75c0.25,0.25,0.5,0.5,0.75,0.75
		C940.23,488.27,939.96,488.5,939.22,488.25z"/>
	<path class="st97" d="M917.36,528c-0.42,0-0.66,0-1.08,0c-0.08-0.38-0.16-0.79-0.27-1.32c0.49-0.1,0.82-0.17,1.36-0.28
		C917.36,527,917.36,527.5,917.36,528z"/>
	<path class="st98" d="M910.06,525.12c1.56,0,2.21,0,2.86,0c0.09,0.12,0.18,0.25,0.27,0.37c-0.51,0.23-1.02,0.46-1.34,0.6
		C911.7,526.01,911.21,525.75,910.06,525.12z"/>
	<path class="st99" d="M976,589.41c-1.12,0-2.06,0-3.06,0c0.09-0.27,0.16-0.58,0.19-0.58C974.05,588.96,975.19,588.21,976,589.41z"
		/>
	<path class="st100" d="M947.43,591.75c0-0.25,0-0.5,0-0.75c0.37-0.21,0.74-0.41,1.24-0.68c0.29,0.42,0.65,0.92,1,1.43
		C948.92,592.36,948.18,592.37,947.43,591.75z"/>
	<path class="st101" d="M910.84,520.5c-0.25-0.25-0.5-0.5-0.75-0.75c0.39-0.22,0.78-0.45,0.79-0.45c0.54,0.25,1.05,0.48,1.57,0.71
		c-0.09,0.16-0.18,0.33-0.27,0.49C911.73,520.5,911.28,520.5,910.84,520.5z"/>
	<path class="st102" d="M969.84,593.25c0-0.37,0-0.74,0-1.11c1.37-0.45,1.37-0.45,1.49,1.11c-0.19,0.24-0.44,0.36-0.75,0.36
		C970.27,593.62,970.02,593.51,969.84,593.25z"/>
	<path class="st103" d="M910.84,549c-0.25,0.25-0.5,0.5-0.75,0.75c-0.63-1-0.98-2,0-3C911.53,547.1,910.55,548.26,910.84,549z"/>
	<path class="st104" d="M949.67,592.5c0.25,0.25,0.5,0.5,0.75,0.75c-1,0-1.99,0-2.99,0c0-0.25,0-0.5,0-0.75
		C948.18,592,948.92,591.96,949.67,592.5z"/>
	<path class="st105" d="M969.84,593.25c0.25,0,0.5,0,0.75,0c0.16,0.12,0.31,0.25,0.47,0.37c-0.16,0.12-0.31,0.25-0.47,0.38
		c-0.25,0.25-0.5,0.5-0.75,0.75c-0.25,0.25-0.5,0.5-0.75,0.75c0-0.75,0-1.5,0-2.25C969.34,593.25,969.59,593.25,969.84,593.25z"/>
	<path class="st106" d="M913.08,513.75c-0.06,1.12-0.93,0.64-1.49,0.75c0.25-0.5,0.5-1,0.75-1.5
		C912.58,513.25,912.83,513.5,913.08,513.75z"/>
	<path class="st107" d="M916.06,514.5c-1.02-0.75-1.02-1.5,0-2.25C916.06,513,916.06,513.75,916.06,514.5z"/>
	<path class="st108" d="M911.58,551.25c0-0.75,0-1.5,0-2.25C912.61,549.76,912.61,550.5,911.58,551.25z"/>
	<path class="st109" d="M936.85,582.88c0,0.66,0,1.33,0,1.99c-0.13,0.01-0.26,0.02-0.39,0.04c-0.09-0.66-0.18-1.32-0.28-1.99
		C936.41,582.91,936.63,582.89,936.85,582.88z"/>
	<path class="st13" d="M919.71,511.05c0.55-0.2,1.09-0.39,1.55-0.56C921.71,511.31,921.03,511.45,919.71,511.05z"/>
	<path class="st110" d="M930.25,584.25c0-0.25,0-0.5,0-0.75c0.45,0,0.9,0,1.42,0c0,0.57,0,0.9,0,1.4
		C931.14,584.66,930.7,584.46,930.25,584.25z"/>
	<path class="st111" d="M932.68,578.05c-0.63,0.12-0.96,0.18-1.45,0.28c-0.1-0.45-0.18-0.87-0.45-2.13
		C931.72,577.12,932.11,577.49,932.68,578.05z"/>
	<path class="st112" d="M917.56,507.75c-0.7,0-1.41,0-2.11,0c-0.02-0.18-0.04-0.35-0.06-0.53c0.72-0.07,1.44-0.15,2.17-0.22
		c0.24,0.17,0.32,0.33,0.24,0.5C917.72,507.67,917.64,507.75,917.56,507.75z"/>
	<path class="st113" d="M939.96,587.25c-0.25-0.25-0.5-0.5-0.75-0.75c0.06-1.12,0.93-0.64,1.49-0.75c0.43,0.5,0.45,1,0,1.5
		C940.46,587.25,940.21,587.25,939.96,587.25z"/>
	<path class="st114" d="M940.71,587.25c0-0.5,0-1,0-1.5c0.5,0.37,1.01,0.74,2.05,1.5C941.61,587.25,941.16,587.25,940.71,587.25z"/>
	<path class="st115" d="M944.57,587.88c0-0.66,0-1.33,0-1.99c0.13-0.01,0.25-0.03,0.38-0.04c0.09,0.66,0.19,1.31,0.28,1.97
		C945.01,587.84,944.79,587.86,944.57,587.88z"/>
	<path class="st116" d="M917.56,507.75c0-0.25,0-0.5,0-0.75c0.19-1.05,0.76-0.88,1.57-0.38
		C918.56,507.03,918.06,507.39,917.56,507.75z"/>
	<path class="st117" d="M967.07,587.65c-0.58,0.36-1.04,0.65-1.59,1C965.31,587.69,965.08,586.8,967.07,587.65z"/>
	<path class="st118" d="M972.01,587.43c0,0.41,0,0.74,0,1.19c-0.47,0-0.89,0-2.2,0C970.96,588.01,971.44,587.74,972.01,587.43z"/>
	<path class="st119" d="M933.93,505.04c0,0.29,0,0.62,0,1.08c-0.46,0-0.87,0-1.29,0c-0.09-0.12-0.18-0.24-0.26-0.36
		C932.89,505.53,933.4,505.29,933.93,505.04z"/>
	<path class="st120" d="M937.75,587.93c-0.04,0.52-0.07,0.96-0.1,1.4c-0.14,0.1-0.27,0.19-0.41,0.29c-0.19-0.51-0.39-1.03-0.56-1.48
		C936.73,588.13,937.22,588.03,937.75,587.93z"/>
	<path class="st121" d="M927.18,504.3c0.55-0.2,1.09-0.39,1.55-0.56C928.98,504.4,928.67,504.84,927.18,504.3z"/>
	<path class="st122" d="M909.34,525c0.25-0.25,0.5-0.5,0.75-0.75c-0.28,0.74,0.69,1.9-0.75,2.25C909.34,526,909.34,525.5,909.34,525
		z"/>
	<path class="st123" d="M922.72,503.44c0,0.41,0,0.74,0,1.19c-0.47,0-0.89,0-2.2,0C921.67,504.01,922.15,503.74,922.72,503.44z"/>
	<path class="st124" d="M946.68,589.5c0-0.25,0-0.5,0-0.75c0.7,0,1.41,0,2.11,0c0.02,0.18,0.04,0.35,0.06,0.53
		C948.13,589.36,947.41,589.43,946.68,589.5z"/>
	<path class="st125" d="M936.09,501.62c-0.66,0-1.32,0-1.99,0c-0.01-0.13-0.02-0.26-0.03-0.39c0.67-0.09,1.33-0.18,2-0.27
		C936.08,501.18,936.08,501.4,936.09,501.62z"/>
	<path class="st126" d="M941.64,590.8c-0.63,0.12-0.96,0.18-1.45,0.28c-0.1-0.45-0.18-0.87-0.45-2.13
		C940.68,589.87,941.07,590.24,941.64,590.8z"/>
	<path class="st127" d="M977.3,591c-0.25,0-0.5,0-0.75,0c-0.25-0.5-0.5-1-0.75-1.5c0.44,0,0.87,0,1.49,0
		C977.3,590.13,977.3,590.56,977.3,591z"/>
	<path class="st11" d="M957.89,591.75c0-0.25,0-0.5,0-0.75c0.08-0.21,0.16-0.41,0.33-0.85c0.44,0.61,0.8,1.11,1.16,1.6
		C958.88,591.75,958.38,591.75,957.89,591.75z"/>
	<path class="st128" d="M942.95,591c0.5,0,1,0,1.49,0c0,0.45,0,0.9,0,2.06C943.67,592,943.31,591.5,942.95,591z"/>
	<path class="st129" d="M974.32,592.5c-0.5-0.25-1-0.5-1.49-0.75c0.37-0.3,0.74-0.59,1.49-1.2
		C974.32,591.59,974.32,592.04,974.32,592.5z"/>
	<path class="st130" d="M943.7,588.75c0,0.25,0,0.5,0,0.75c-0.7,0-1.41,0-2.11,0c-0.02-0.18-0.04-0.35-0.06-0.53
		C942.25,588.9,942.97,588.82,943.7,588.75z"/>
	<path class="st131" d="M924.05,565.62c0.77-0.06,1.09-0.08,1.68-0.13c-0.05,0.57-0.08,1.05-0.14,1.75
		C925.01,566.64,924.66,566.27,924.05,565.62z"/>
	<path class="st132" d="M931.66,497.55c0.55-0.2,1.09-0.39,1.55-0.56C933.52,497.7,933.07,498.03,931.66,497.55z"/>
	<path class="st133" d="M926,568.38c-0.77,0.06-1.09,0.08-1.68,0.13c0.05-0.57,0.08-1.05,0.14-1.75
		C925.04,567.36,925.39,567.74,926,568.38z"/>
	<path class="st134" d="M953.41,594.75c-1.44-0.35-0.46-1.51-0.75-2.25c0.25,0,0.5,0,0.75,0C953.93,593.25,954.02,594,953.41,594.75
		z"/>
	<path class="st135" d="M953.41,594.75c0-0.75,0-1.5,0-2.25c0.25,0.25,0.5,0.5,0.75,0.75c0.45,0.5,0.42,1,0,1.5
		C953.9,594.75,953.65,594.75,953.41,594.75z"/>
	<path class="st136" d="M955.65,592.5c0.25,0,0.5,0,0.75,0c0.25,0.5,0.5,1,0.75,1.5c-0.5,0-1,0-1.49,0
		c-0.26-0.17-0.35-0.33-0.26-0.5c0.09-0.17,0.17-0.25,0.26-0.25C955.65,593,955.65,592.75,955.65,592.5z"/>
	<path class="st137" d="M955.65,593.25c0,0.25,0,0.5,0,0.75c-0.5,0.25-1,0.5-1.49,0.75c0-0.5,0-1,0-1.5
		C954.65,593.25,955.15,593.25,955.65,593.25z"/>
	<path class="st138" d="M970.58,594c0-0.25,0-0.5,0-0.75c0.25,0,0.5,0,0.75,0c0.25,0,0.5,0,0.75,0c0.21,0.08,0.42,0.17,1.19,0.48
		C972.03,593.86,971.31,593.93,970.58,594z"/>
	<path class="st139" d="M976.56,593.25c0,0.25,0,0.5,0,0.75c-0.75,0-1.49,0-2.24,0c0.25-0.25,0.5-0.5,0.75-0.75c0.25,0,0.5,0,0.75,0
		C976.06,593.25,976.31,593.25,976.56,593.25z"/>
	<path class="st140" d="M918.24,513.65c0,0.69,0,1.02,0,1.23c-0.4-0.26-0.85-0.57-1.45-0.96
		C917.26,513.83,917.59,513.77,918.24,513.65z"/>
	<path class="st141" d="M993.73,490.5c0.35,0,1-0.07,1.02,0.01c0.28,1.25,1.66,1.31,2.23,2.17c0.29,0.44,0.33,1.04,0.48,1.57
		c-0.25,0.27-0.5,0.27-0.75,0c-0.33,0.4-0.66,0.8-1.26,1.53c-1.12-0.29-2.53-0.66-4.14-1.07c0.35-0.73,0.63-1.34,0.92-1.95
		C992.85,492.08,992.99,491.09,993.73,490.5z"/>
	<path class="st142" d="M1004.94,503.25c0,0.37,0,0.74,0,1.36c-1.14,0.06-2.29,0.12-3.6,0.18c0-0.71,0-1.28,0-1.87
		c-0.62-0.29-1.13-0.52-1.63-0.75c0.43-1.04,2.1,0.4,2.24-1.17c-0.13-0.15-0.18-0.3-0.16-0.47c0.02-0.17,0.05-0.25,0.08-0.23
		c-0.01,0.02,0.28-0.1,0.28-0.1s-0.18-0.26-0.19-0.26c-0.19-0.16-0.28-0.36-0.31-0.6c-0.03-0.26,0.07-0.46,0.3-0.59
		c0.61-0.15,1.21-0.31,2.08-0.53c0.19,0.27,0.55,0.77,0.91,1.28C1003.71,500.75,1006.17,502,1004.94,503.25z"/>
	<path class="st143" d="M1012.41,515.25c-0.86,0-1.71,0-2.61,0c-0.39-0.79-0.79-1.6-1.33-2.7c0.68-0.12,1.19-0.21,1.71-0.3
		c0.49,0.38,0.19,1.16,0.75,1.5c0.25-0.29,0.66-0.56,0.71-0.89c0.11-0.69,0.03-1.41,0.03-2.11c0.08-0.42,0.33-0.66,0.75-0.75
		c1.78,1.21,1.15,3.45,3.06,5.25c-1.4,0-1.86,0-2.31,0c-0.43-0.34-0.36-0.82-0.37-1.28
		C1012.76,514.43,1012.83,514.92,1012.41,515.25z"/>
	<path class="st144" d="M982.53,486c1.2,0,2.4,0,3.59,0c-0.08,2.45-0.08,2.45-2.1,3c-0.15,0.04-0.31,0.08-0.46,0.12
		c-0.92,0.28-1.82,0.62-2.8,0.64c-0.51-0.09-0.87-0.41-1.22-0.76c0.25-0.5,0.5-1,0.75-1.5c0.25-0.44,0.45-0.93,0.99-1.1
		c0.2-0.08,0.42-0.15,0.63-0.22C982.1,486.06,982.31,486,982.53,486z"/>
	<path class="st145" d="M1008.67,570c-1.27-0.48-0.8-1.1,0.02-1.89c-0.53-0.38-1.02-0.75-1.52-1.11c-0.21-0.17-0.28-0.33-0.21-0.5
		c0.07-0.17,0.14-0.25,0.21-0.25c0.37,0,0.74,0,1.16,0c0.22-0.49,0.46-0.99,0.93-2.01c0.1,1.46,0.17,2.39,0.28,3.89
		c0.64-0.88,1.01-1.38,1.37-1.88c1.44,0.35,0.46,1.51,0.75,2.25c-0.5,0.25-1,0.5-1.49,0.75
		C1009.76,569.7,1009.34,570.09,1008.67,570z"/>
	<path class="st146" d="M1015.39,552.75c-0.25-0.25-0.5-0.5-0.75-0.75c0.03-0.64-0.31-1.09-0.75-1.5c-0.25,0-0.5,0-0.75,0
		c0.75-0.75,1.49-1.5,2.24-2.25c0.98,0.77,2.07,1.4,2.99,2.25c0,0.75,0,1.5,0,2.25C1017.38,553.31,1016.39,553.31,1015.39,552.75z"
		/>
	<path class="st147" d="M1018.38,550.5c-0.39,0.23-0.78,0.46-1.13,0.66c-0.61-0.95-1.24-1.93-1.86-2.91
		c0.65,0.17,1.3,0.34,1.89,0.49c0.36-0.39,0.82-0.9,1.32-1.44C1019.74,548.72,1018.71,549.55,1018.38,550.5z"/>
	<path class="st148" d="M1010.16,558c0-0.61,0-1.23,0-2.02c0.89-0.31,1.83-0.71,2.81-0.93c0.24-0.06,0.61,0.45,0.93,0.7
		c0.19,0.85,0.2,1.66-0.55,2.28C1012.29,558.08,1011.22,558.68,1010.16,558z"/>
	<path class="st80" d="M975.06,489c-0.49-0.63-0.98-1.27-1.4-1.81c0.24-0.43,0.45-0.81,0.66-1.19c0.3-0.52,0.78-0.78,1.35-0.89
		c0.58-0.05,1.1,0.09,1.57,0.43c0.26,0.27,0.42,0.59,0.47,0.96c-0.04,0.81-0.66,1.24-1.15,1.75c0,0.25,0,0.5,0,0.75
		C976.06,489.5,975.56,489.24,975.06,489z"/>
	<path class="st18" d="M1014.65,521.25c0.61,0,1.21,0,1.74,0c0.73,0.88,1.43,1.71,2.12,2.54c-0.11,0.13-0.22,0.26-0.34,0.39
		c-0.22-0.12-0.43-0.25-0.83-0.48c-0.42,0.19-0.97,0.44-1.39,0.63c-1.17-0.52,0.26-2.17-1.3-2.32c-0.18-0.17-0.24-0.33-0.18-0.5
		C1014.52,521.34,1014.58,521.25,1014.65,521.25z"/>
	<path class="st149" d="M1017.63,540c-0.85,0-1.71,0-2.36,0c-0.56-0.47-1.01-0.84-1.69-1.41c0.46-0.36,0.76-0.6,1.07-0.84
		c0.18-0.23,0.4-0.39,0.68-0.49c0.44-0.07,0.86-0.01,1.26,0.18c0.1,0.1,0.2,0.2,0.31,0.31c0.25,0.5,0.5,1,0.75,1.5
		c0.19,0.17,0.25,0.33,0.19,0.5C1017.76,539.92,1017.7,540,1017.63,540z"/>
	<path class="st150" d="M975.81,486c-0.5,0-1,0-1.49,0c-0.25-0.25-0.5-0.5-0.75-0.75c-0.49-0.87-0.53-1.52,0.75-1.5
		c0.25,0,0.5,0,0.75,0c0.75,0,1.49,0,2.24,0c0.25,0.21,0.34,0.48,0.27,0.81C977.2,485.31,976.26,485.35,975.81,486z"/>
	<path class="st151" d="M1018.38,525.75c1.37,0.24,0.9,1.6,0.62,1.87c-0.84,0.82-0.54,1.73-0.62,2.63c0.47,0.51,0.44,1.05,0.11,1.61
		c-0.38,0.2-0.74,0.18-1.09-0.07c-0.73-0.82-0.53-1.84-0.58-2.8c-0.13-0.78-0.27-1.55,0.13-2.3
		C1017.28,526.16,1017.83,525.96,1018.38,525.75z"/>
	<path class="st152" d="M1009.94,534.6c0.47,0.47,0.95,0.95,1.47,1.47c0.09-0.08,0.34-0.3,0.68-0.58c0.28,0.36,0.58,0.73,0.95,1.19
		c-0.82,0.27-1.71,0.56-2.64,0.86c-0.33-0.69-0.72-1.52-1.11-2.35C1009.5,535,1009.72,534.8,1009.94,534.6z"/>
	<path class="st153" d="M998.96,495c1.06-0.19,1.75,0.38,2.23,1.22c0.32,0.56,0.51,1.19,0.76,1.78c-1.2,1.06-2.07,0.09-3.01-0.5
		c-0.26-0.28-0.45-0.61-0.56-0.98C998.33,495.92,998.52,495.42,998.96,495z"/>
	<path class="st154" d="M1010.91,565.5c-0.75-0.76-1.51-1.51-2.22-2.31c-0.12-0.13-0.02-0.46-0.02-0.69
		c0.86,0.61,1.8,0.83,2.86,0.79c0.28-0.01,0.58,0.46,0.88,0.71c-0.03,0.5,0.46,1,0,1.5C1011.91,565.5,1011.41,565.5,1010.91,565.5z"
		/>
	<path class="st155" d="M1019.13,541.5c0.12,0,0.35-0.03,0.36,0c0.38,1.29-0.15,2.3-1.54,2.95c-0.57-0.64,0.33-0.69,0.41-1.12
		c-0.23-0.83-0.47-1.71-0.72-2.59C1018.49,540.28,1018.72,541.07,1019.13,541.5z"/>
	<path class="st156" d="M1005.68,502.5c0.31-0.15,0.63-0.3,1.24-0.59c0.47,0.76,1.8,1.03,1.76,2.73c-0.7,0.04-1.37,0.08-2.32,0.14
		c0.33-0.6,0.52-0.93,0.85-1.53c-0.61,0-1.07,0-1.53,0c-0.24-0.17-0.32-0.33-0.24-0.5C1005.52,502.59,1005.6,502.5,1005.68,502.5z"
		/>
	<path class="st157" d="M981.78,486.75c-0.5,0.25-1,0.5-1.49,0.75c-0.25-0.25-0.5-0.5-0.75-0.75c-0.26-0.24-0.34-0.53-0.25-0.87
		c0.57-0.94,1.71-0.84,2.49-1.38c1.12,0.06,0.63,0.93,0.75,1.5c0,0.25,0,0.5,0,0.75C982.28,487.06,982.03,487.06,981.78,486.75z"/>
	<path class="st158" d="M1019.13,535.5c0.29,0.58,0.59,1.16,1.05,2.08c-1.28,0.06-2.29,0.12-3.29,0.17
		c-0.41-0.32-0.53-0.75-0.45-1.25c0.13-0.3,0.34-0.52,0.63-0.67c0.38-0.28,0.73-0.61,1.22-0.68
		C1018.62,535.15,1018.9,535.26,1019.13,535.5z"/>
	<path class="st159" d="M1017.63,528.75c0,1,0,2,0,3c0.51,0.25,0.51,0.5,0,0.75c-0.44,0-0.87,0-1.49,0c0-0.62,0-1.06,0-1.5
		c-0.53-0.5-0.07-1,0-1.5c0-0.25,0-0.5,0-0.75c0,0,0.21-0.3,0.21-0.3c0.21-0.15,0.45-0.2,0.71-0.15
		C1017.3,528.38,1017.49,528.54,1017.63,528.75z"/>
	<path class="st160" d="M1012.41,510c-0.25,0.25-0.5,0.5-0.75,0.75c-0.69,0-1.38,0-2.24,0c0-1.13,0-2.07,0-3
		c1.53,0.15,0.17,1.7,1.27,2.29c0.4-0.18,0.95-0.41,1.49-0.65C1012.25,509.6,1012.33,509.8,1012.41,510z"/>
	<path class="st161" d="M998.96,497.25c0.45,0.08,0.92,0.14,1.36,0.25c0.55,0.14,1.08,0.33,1.62,0.5c0,0.25,0,0.5,0,0.75
		s0,0.5,0,0.75c-0.75,0.63-1.49,0.51-2.24,0c-0.25-0.5-0.5-1-0.75-1.5c-0.25-0.17-0.33-0.33-0.25-0.5
		C998.8,497.34,998.88,497.25,998.96,497.25z"/>
	<path class="st162" d="M999.71,499.5c0.39-0.22,0.78-0.45,1.12-0.64c0.34,0.2,0.73,0.42,1.12,0.64c0.25,0.25,0.5,0.5,0.75,0.75
		c-0.25,0.25-0.5,0.5-0.75,0.75c-0.68,0-1.36,0-2.24,0C999.71,500.39,999.71,499.95,999.71,499.5z"/>
	<path class="st163" d="M1016.89,558c-0.06,1.12-0.93,0.64-1.49,0.75c-0.55-0.01-0.96-0.27-1.25-0.72
		c-0.12-0.32-0.18-0.64-0.17-0.98c0.05-0.52,0.3-0.94,0.68-1.3c0.25,0,0.5,0,0.75,0C1016.68,555.97,1016.24,557.35,1016.89,558z"/>
	<path class="st164" d="M979.54,489c0.5,0,1,0,1.49,0c0.33,0.26,0.83,0.3,1.03,0.75c0.06,0.31-0.03,0.56-0.28,0.75
		c-0.58,0.29-1.15,0.59-2.03,1.04C979.67,490.52,979.61,489.76,979.54,489z"/>
	<path class="st165" d="M1014.65,521.25c0,0.25,0,0.5,0,0.75c-0.49,0.57-0.98,1.13-1.98,2.3c0-1.26,0-1.72,0-2.18
		c1.08,0.09,1.27-0.86,1.6-1.85C1014.48,520.84,1014.56,521.04,1014.65,521.25z"/>
	<path class="st92" d="M1016.89,558c-0.5-0.75-1-1.5-1.49-2.25c0.32-0.48,0.64-0.97,1.14-1.72
		C1017.11,555.49,1016.78,556.78,1016.89,558z"/>
	<path class="st166" d="M1014.65,560.25c-0.46,1.34-1.86,0.83-2.88,1.32c0.46-0.69,0.92-1.38,1.38-2.07
		c0.26-0.25,0.56-0.38,0.93-0.37C1014.6,559.34,1015.02,559.59,1014.65,560.25z"/>
	<path class="st167" d="M986.32,493.93c-0.95,0.29-1.88,0.57-2.9,0.88c-0.05-0.22-0.12-0.55-0.19-0.87c0.7-0.37,1.36-0.72,2.02-1.07
		C985.59,493.2,985.93,493.54,986.32,493.93z"/>
	<path class="st168" d="M1010.16,558c0.36,0,0.73,0,1.15,0c0.22-0.49,0.45-1,0.66-1.48c0.4,0.5,0.79,0.99,1.17,1.48
		c0.06,0.12,0.13,0.25,0.19,0.38c-0.06,0.12-0.13,0.25-0.19,0.38c-0.7,0-1.42,0.08-2.1-0.03
		C1010.72,558.66,1010.46,558.25,1010.16,558z"/>
	<path class="st169" d="M976.56,488.25c0.11-0.57-0.37-1.44,0.75-1.5c0.5-0.45,1-0.39,1.49,0c0,0.44,0,0.89,0,1.5
		C977.92,488.25,977.24,488.25,976.56,488.25z"/>
	<path class="st170" d="M981.78,484.5c-0.75,0.5-1.49,1-2.24,1.5c-0.35,0.19-0.64,0.12-0.85-0.23c0.03-0.17,0.07-0.35,0.1-0.52
		c0.39-0.49,0.78-0.97,1.03-1.29C980.5,484.15,981.14,484.33,981.78,484.5z"/>
	<path class="st171" d="M1005.68,502.5c0,0.25,0,0.5,0,0.75c-0.25,0-0.5,0-0.75,0c-0.15-0.53-0.27-1.06-0.46-1.58
		c-0.3-0.83-0.87-1.7,0.46-2.17c0.17,0.54,0.36,1.08,0.5,1.63C1005.55,501.58,1005.6,502.05,1005.68,502.5z"/>
	<path class="st172" d="M1013.9,527.25c0.06-1.12,0.93-0.64,1.49-0.75c0.37-0.26,0.71-0.23,1.03,0.1c0.47,0.79,0.3,1.5-0.28,2.15
		c-0.57-0.11-1.43,0.37-1.49-0.75C1014.57,527.58,1014,527.65,1013.9,527.25z"/>
	<path class="st173" d="M998.96,497.25c0,0.25,0,0.5,0,0.75c-1.2-0.66-2.35-1.35-2.24-3c1.4-0.49,1.56,0.89,2.24,1.5
		C998.96,496.75,998.96,497,998.96,497.25z"/>
	<path class="st174" d="M1009.29,516.16c0,0.91,0,1.82,0,2.78c-0.46,0-0.79,0-1.49,0c0.42-1.07,0.77-1.95,1.12-2.84
		C1009.04,516.12,1009.16,516.14,1009.29,516.16z"/>
	<path class="st175" d="M993.73,490.5c0.12,1.16-0.31,1.96-1.49,2.25c0-0.69,0-1.37,0-2.25C992.85,490.5,993.29,490.5,993.73,490.5z
		"/>
	<path class="st176" d="M998.96,496.5c-0.75-0.5-1.49-1-2.24-1.5c0-0.25,0-0.5,0-0.75c0.25,0,0.5,0,0.75,0c0.5,0.25,1,0.5,1.49,0.75
		C998.96,495.5,998.96,496,998.96,496.5z"/>
	<path class="st177" d="M992.52,496.67c1.62,0,2.52,0,3.79,0c-0.67,0.53-1.03,0.82-1.43,1.15
		C994.32,497.55,993.65,497.22,992.52,496.67z"/>
	<path class="st178" d="M1016.14,529.5c0.24,0.11,0.49,0.22,0.65,0.3c-0.25,0.47-0.45,0.84-0.65,1.2c-0.71,0-1.41,0-3.01,0
		C1014.67,530.23,1015.4,529.87,1016.14,529.5z"/>
	<path class="st179" d="M1018.38,531.75c0-0.5,0-1,0-1.5c0.38-0.21,0.76-0.43,1.32-0.74c0.06,0.75,0.11,1.5,0.17,2.24
		C1019.38,532.19,1018.88,532.19,1018.38,531.75z"/>
	<path class="st180" d="M1019.13,535.5c-0.25,0-0.5,0-0.75,0c-1.53,0.53-0.8-1.2-1.49-1.5c0.06-1.12,0.93-0.64,1.49-0.75
		c0.19,0.17,0.26,0.33,0.19,0.5c-0.06,0.17-0.13,0.25-0.19,0.25C1018.63,534.5,1018.88,535,1019.13,535.5z"/>
	<path class="st181" d="M1015.39,537.75c-0.25,0-0.5,0-0.75,0c0.16-1.68,0.57-2.09,2.24-2.25c0.21,0.17,0.28,0.33,0.21,0.5
		c-0.07,0.17-0.14,0.25-0.21,0.25C1016.43,536.8,1016.17,537.53,1015.39,537.75z"/>
	<path class="st182" d="M1016.59,545.41c-2.05-0.82-2.07-1.84-1.81-3.66C1015.46,543.13,1015.87,543.95,1016.59,545.41z"/>
	<path class="st183" d="M1013.9,550.5c0.7,0,1.39,0,2.79,0c-1.06,0.77-1.55,1.14-2.05,1.5
		C1013.53,551.94,1014.01,551.07,1013.9,550.5z"/>
	<path class="st31" d="M1014.65,555.75c0,0.5,0,1,0,1.5c-0.39,0.46-0.6,1.29-1.49,0.75c0.28-0.74-0.69-1.9,0.75-2.25
		C1014.15,555.75,1014.4,555.75,1014.65,555.75z"/>
	<path class="st184" d="M975.06,489c0.11-0.24,0.22-0.49,0.29-0.65c0.47,0.26,0.83,0.45,1.2,0.65c0,0.5,0,1,0,1.5
		c-0.44,0-0.87,0-1.49,0C975.06,489.88,975.06,489.44,975.06,489z"/>
	<path class="st185" d="M981.78,490.5c0-0.25,0-0.5,0-0.75c0.61-0.66,1.29-1.12,2.24-0.75c0,0.69,0,1.37,0,2.09
		C983.16,490.87,982.47,490.69,981.78,490.5z"/>
	<path class="st186" d="M1009.35,530.93c0,0.69,0,1.02,0,1.45c-0.73,0-1.39,0-2.48,0C1007.86,531.8,1008.48,531.43,1009.35,530.93z"
		/>
	<path class="st187" d="M1012.41,565.5c-0.45-0.39-0.89-0.78-1.48-1.29c0.51-0.07,0.99-0.14,1.48-0.21c0.25,0.31,0.5,0.62,0.75,0.93
		C1012.9,565.12,1012.65,565.31,1012.41,565.5z"/>
	<path class="st188" d="M1004.25,511.63c0-0.71,0-1.04,0-1.53c0.75,0.33,1.41,0.63,2.48,1.1
		C1005.77,511.37,1005.17,511.47,1004.25,511.63z"/>
	<path class="st189" d="M1018.38,531.75c0.5,0,1,0,1.49,0c0,0.5,0,1,0,1.5c-0.87,0.5-1.08-0.34-1.49-0.75c-0.25,0-0.5,0-0.75,0
		c0-0.25,0-0.5,0-0.75C1017.88,531.75,1018.13,531.75,1018.38,531.75z"/>
	<path class="st190" d="M977.3,484.5c0-0.25,0-0.5,0-0.75c0.44,0,0.87,0,1.49,0c0,0.62,0,1.06,0,1.5c-0.24,0.27-0.54,0.4-0.9,0.39
		C977.37,485.43,977,485.15,977.3,484.5z"/>
	<path class="st191" d="M1005.19,507.22c-0.83,0.61-1.4,1.04-2.24,1.66C1003.52,507.31,1003.52,507.31,1005.19,507.22z"/>
	<path class="st192" d="M1015.39,552.75c1,0,1.99,0,2.99,0C1017.43,553.77,1016.34,553.77,1015.39,552.75z"/>
	<path class="st193" d="M1013.9,527.25c0.45,0,0.91,0,2.24,0c-1.03,0.52-1.26,0.63-1.49,0.75c-0.7,0-1.4,0-2.11,0
		c-0.02-0.16-0.04-0.33-0.06-0.49C1012.95,527.42,1013.43,527.34,1013.9,527.25z"/>
	<path class="st194" d="M989.32,497.13c0-0.45,0-0.78,0-1.29c0.78,0.36,1.46,0.68,2.78,1.29
		C990.7,497.13,990.04,497.13,989.32,497.13z"/>
	<path class="st195" d="M1013.15,558c0.5-0.25,1-0.5,1.49-0.75c0,0.25,0,0.5,0,0.75c0.5,0.87-0.24,1.13-0.75,1.5
		c-0.25,0-0.5,0-0.75,0c0-0.25,0-0.5,0-0.75S1013.15,558.25,1013.15,558z"/>
	<path class="st196" d="M1013.9,559.5c0.25-0.5,0.5-1,0.75-1.5c0.25,0.25,0.5,0.5,0.75,0.75c-0.11,0.57,0.37,1.44-0.75,1.5
		C1014.4,560,1014.15,559.75,1013.9,559.5z"/>
	<path class="st197" d="M1018.38,539.25c0.2-1.06,0.89-1.01,1.39-0.4c0.33,0.4,0.24,1.13-0.64,1.15
		C1018.42,540.21,1018.11,540.02,1018.38,539.25z"/>
	<path class="st198" d="M1018.38,539.25c0.25,0.25,0.5,0.5,0.75,0.75c0,0.5,0,1,0,1.5c-0.5-0.25-1-0.5-1.49-0.75
		c0-0.25,0-0.5,0-0.75s0-0.5,0-0.75C1017.88,539.25,1018.13,539.25,1018.38,539.25z"/>
	<path class="st199" d="M978.05,485.25c0.25,0,0.5,0,0.75,0c0.25,0.25,0.5,0.5,0.75,0.75c0,0.25,0,0.5,0,0.75c-0.25,0-0.5,0-0.75,0
		c-0.5,0-1,0-1.49,0c0-0.25,0-0.5,0-0.75C977.33,485.53,977.77,485.47,978.05,485.25z"/>
	<path class="st18" d="M1016.14,526.5c-0.25,0-0.5,0-0.75,0c0-0.44,0-0.88,0-1.5c0.62,0,1.06,0,1.49,0c0.3,0.32,0.42,0.7,0.39,1.14
		c-0.07,0.28-0.22,0.5-0.46,0.66C1016.52,526.86,1016.3,526.76,1016.14,526.5z"/>
	<path class="st200" d="M1016.89,536.25c0-0.25,0-0.5,0-0.75c0-0.5,0-1,0-1.5c0.25,0.19,0.52,0.35,0.74,0.57
		c0.28,0.28,0.5,0.62,0.75,0.93C1018.32,536.62,1017.45,536.14,1016.89,536.25z"/>
	<path class="st201" d="M1014.54,516.75c0.75,0,0.99,0,1.47,0c0.05,0.65,0.1,1.31,0.15,1.97c-0.15,0.05-0.29,0.1-0.44,0.16
		c-0.11-0.27-0.2-0.55-0.34-0.81C1015.18,517.72,1014.94,517.38,1014.54,516.75z"/>
	<path class="st202" d="M1012.83,546.74c0.8,1.35-0.32,1.61-0.86,2.28C1011.17,547.66,1012.3,547.4,1012.83,546.74z"/>
	<path class="st203" d="M1007.29,516.45c-0.34,0.41-0.67,0.83-1.3,1.6c-0.17-0.93-0.25-1.35-0.35-1.87
		c0.49-0.09,0.82-0.16,1.16-0.22C1006.96,516.12,1007.12,516.28,1007.29,516.45z"/>
	<path class="st204" d="M1012.41,515.25c0-0.46,0-0.91,0-1.37c0.16-0.02,0.33-0.04,0.49-0.05c0.08,0.47,0.17,0.95,0.25,1.42
		c0,0.46,0,0.91,0,1.37c-0.16,0.02-0.33,0.04-0.49,0.05C1012.57,516.2,1012.49,515.73,1012.41,515.25z"/>
	<path class="st205" d="M986.61,491.07c0.19-0.4,0.42-0.92,0.88-1.92c0.18,1.07,0.24,1.4,0.33,1.92
		C987.26,491.07,986.76,491.07,986.61,491.07z"/>
	<path class="st183" d="M989.45,489.94c-0.12-0.63-0.18-0.96-0.28-1.46c0.45-0.1,0.86-0.18,2.12-0.45
		C990.38,488.98,990.02,489.36,989.45,489.94z"/>
	<path class="st206" d="M1010.91,513.75c-0.08,0.21-0.17,0.42-0.48,1.2c-0.12-1.25-0.19-1.97-0.27-2.7
		C1011.28,512.32,1010.8,513.18,1010.91,513.75z"/>
	<path class="st207" d="M1010.27,529.44c-0.68,0-1.01,0-1.23,0c0.26-0.4,0.57-0.86,0.96-1.46
		C1010.09,528.46,1010.15,528.79,1010.27,529.44z"/>
	<path class="st208" d="M1018.38,532.5c0.5,0.25,1,0.5,1.49,0.75c-0.06,1.12-0.93,0.64-1.49,0.75c0-0.25,0-0.5,0-0.75
		S1018.38,532.75,1018.38,532.5z"/>
	<path class="st209" d="M1013.18,550.43c-0.04,0.52-0.07,0.96-0.1,1.4c-0.14,0.1-0.27,0.19-0.41,0.29
		c-0.19-0.51-0.39-1.03-0.56-1.48C1012.16,550.63,1012.65,550.53,1013.18,550.43z"/>
	<path class="st210" d="M1016.89,526.5c0-0.5,0-1,0-1.5c0.5,0.25,1,0.5,1.49,0.75c-0.25,0.25-0.5,0.5-0.75,0.75
		C1017.38,526.77,1017.14,526.77,1016.89,526.5z"/>
	<path class="st211" d="M1010.85,553.31c0,0.02,0,0.35,0,0.81c-0.46,0-0.87,0-1.29,0c-0.08-0.11-0.16-0.22-0.23-0.33
		C1009.89,553.61,1010.46,553.44,1010.85,553.31z"/>
	<path class="st212" d="M1008.82,507.76c-0.03-0.73-0.07-1.46-0.1-2.19c0.17-0.01,0.33-0.03,0.5-0.04c0.1,0.73,0.19,1.46,0.29,2.19
		C1009.27,507.74,1009.05,507.75,1008.82,507.76z"/>
	<path class="st213" d="M1012.93,562.85c0.58-0.37,1.04-0.65,1.52-0.95C1014.77,562.88,1014.89,563.68,1012.93,562.85z"/>
	<path class="st214" d="M1013.22,519.57c0-0.41,0-0.74,0-1.19c0.47,0,0.89,0,2.2,0C1014.27,519,1013.78,519.26,1013.22,519.57z"/>
	<path class="st215" d="M1009.14,548.83c-0.37-1.05-0.57-1.6-0.66-1.85C1009.26,546.8,1009.26,546.8,1009.14,548.83z"/>
	<path class="st216" d="M910.09,546.75c0,1,0,2,0,3c-0.5-0.25-1-0.5-1.49-0.75c-0.55-0.35-0.25-1.12-0.75-1.5
		c-0.24-0.11-0.49-0.22-0.65-0.3c0.25-0.47,0.45-0.84,0.65-1.2C908.59,546.25,909.34,546.5,910.09,546.75z"/>
	<path class="st217" d="M910.84,555c0.44,0.62,0.88,1.24,1.39,1.95c-0.16,0.07-0.4,0.19-0.64,0.3c-1.44,0.35-0.46,1.51-0.75,2.25
		C909.78,558.1,909.78,556.41,910.84,555z"/>
	<path class="st37" d="M928.76,582.75c-0.25,0.25-0.5,0.5-0.75,0.75c-0.5-0.5-1-1-1.49-1.5c1.36,0.47,1.45-0.64,2.01-1.92
		C928.63,581.27,928.69,582.01,928.76,582.75z"/>
	<path class="st218" d="M925.03,580.5c0.5-0.5,1-1,1.49-1.5c0,0.75,0,1.5,0,2.25C926.02,581,925.52,580.75,925.03,580.5z"/>
	<path class="st219" d="M907.85,547.5c1.12,0.06,0.63,0.93,0.75,1.5c0,0.25,0,0.5,0,0.75c-0.44,0-0.87,0-1.36,0
		C907.48,548.87,907.66,548.19,907.85,547.5z"/>
	<path class="st220" d="M907.1,541.5c0.25,0,0.5,0,0.75,0c0,0.5,0,1,0,1.5c-0.43,0-0.86,0-1.5,0
		C906.67,542.35,906.89,541.93,907.1,541.5z"/>
	<path class="st221" d="M992.24,546.75c-0.55-0.68-1.11-1.36-1.83-2.25c-1.52,0-3.2,0-4.89,0c-0.31-0.96,0.35-1.36,1-1.76
		c0.52-0.18,1.01-0.42,1.45-0.77c1.67-1.5,1.34-3.33,0.94-5.21c-0.38-1.82-0.38-3.53,1.83-4.25c0.25,0.2,0.66,0.35,0.72,0.6
		c0.54,2.14,1.85,3.98,2.27,6.15c0.57,1.51,0.29,3.12,0.53,4.68C994.47,545.23,994.13,546.69,992.24,546.75z"/>
	<path class="st222" d="M992.24,546.75c0.25-0.31,0.7-0.6,0.71-0.92c0.07-1.57,0.03-3.14,0.03-3.82c0.4-1.47,0.57-2.11,0.75-2.76
		c0.12,0,0.35-0.02,0.36,0c0.43,2.43,2.29,4.29,2.63,6.75c0.53,2.1,0.98,4.19-0.75,6c-0.6,0-1.19,0-1.91,0
		C993.56,550.24,991.92,548.86,992.24,546.75z"/>
	<path class="st223" d="M990.75,532.5c-0.39,0.83-0.84,1.57-0.79,2.63c0.13,2.79,0.04,5.59,0.04,8.62c-0.59,0-1.04,0-1.49,0
		c-1.12-1.25-1.12-2.5,0-3.75c0.32-2.4-1.56-3.97-2.24-6c0.96-0.97,0.37-2.09,0.3-3.16c-0.1-1.6,0.3-2.93,1.94-3.59
		c1.1,0.73,1.45,1.78,1.53,3.07C990.08,531.06,990.5,531.78,990.75,532.5z"/>
	<path class="st224" d="M980.29,527.25c0.5-1,1-2,1.49-3c1.29-0.67,2.57-0.36,3.96-0.08c0.99,2.1,2.11,4.07-0.97,5.33
		c-1.04,0.65-1.32,1.63-1.56,2.79c-0.18,0.87-0.26,2.06-1.43,2.46c-1.79-0.77-2.07-2.23-1.74-3.92
		C980.28,529.64,980.65,528.47,980.29,527.25z"/>
	<path class="st225" d="M975.81,537.75c0.25-0.75,0.5-1.5,0.75-2.25c0.5-0.75,1-1.5,1.49-2.25c2.35-0.08,2.63,1.6,2.33,3.22
		c-0.26,1.42-0.32,2.9-0.84,4.28c-0.25,0.75-0.5,1.5-0.75,2.25c0.06,1.28-0.52,2.24-1.49,3c-1.88-0.85-2.2-2.43-1.97-4.27
		C975.5,540.4,976.09,539.13,975.81,537.75z"/>
	<path class="st226" d="M984.77,529.5c0.25-0.2,0.7-0.38,0.71-0.59c0.06-1.47,0.03-2.94,0.03-4.66c-1.32,0-2.53,0-3.73,0
		c0.19-0.25,0.37-0.71,0.57-0.72c1.45-0.06,2.91-0.03,4.63-0.03c0.5,1.23,1.01,2.49,1.52,3.75c-0.17,0.64-0.35,1.28-0.52,1.93
		c-0.1-0.02-0.2-0.04-0.29-0.06c0,1.55,0,3.1,0,4.88c-0.52,0-0.97,0-1.43,0c-0.33-0.96-0.67-1.92-1-2.88
		C985.09,530.59,984.94,530.04,984.77,529.5z"/>
	<path class="st227" d="M979.54,540.75c-0.17-0.54-0.23-1.16-0.53-1.62c-0.37-0.57,1.09-1.09-0.01-1.64
		c-0.04-0.02,0.47-0.9,0.52-1.4c0.11-1.22-0.42-2.19-1.47-2.84c0.51-2.09,1.51-3.99,2.24-6c0.47,0.6,0.94,1.21,1.42,1.82
		c-1.71,1.91-0.06,3.78,0.08,5.68c0,0.12,0.01,0.24,0,0.36C981.65,536.34,980.52,539.2,979.54,540.75z"/>
	<path class="st228" d="M987.01,543.75c-0.57,0.11-1.43-0.37-1.49,0.75c-1.2,0-2.4,0-3.51,0c-0.69-1.99,0.7-3.01,1.23-4.5
		c1.38,0,2.57,0,3.77,0C987.94,541.25,987.94,542.5,987.01,543.75z"/>
	<path class="st229" d="M995.97,552c-0.54-2.1,0.83-3.96,0.75-6c1.37,1.72,1.57,4.02,3.17,6C998.36,552,997.17,552,995.97,552z"/>
	<path class="st230" d="M960.87,482.25c0.06-1.12,0.93-0.64,1.49-0.75c0.61,0.39,1.12,0.87,1.49,1.5c0.59,0.41,1.93,0.06,1.49,1.5
		c-0.29,0.77-0.58,1.55-0.85,2.28c-0.64-0.36-1.02-0.57-1.39-0.78c-0.43-1.01-0.72-2.12-1.93-2.53
		C960.8,483.14,960.52,482.78,960.87,482.25z"/>
	<path class="st231" d="M965.35,484.5c-0.31-0.25-0.64-0.48-0.92-0.76c-0.22-0.22-0.38-0.49-0.57-0.74
		c0.86-0.48,1.66-1.13,2.58-1.39c0.58-0.17,1.67-0.73,1.9,0.64c0.43,0.41,1.22,0.64,0.75,1.5c-0.25,0-0.5,0-0.75,0
		c-0.67,0.47-1.7-0.12-2.24,0.75C965.85,484.5,965.6,484.5,965.35,484.5z"/>
	<path class="st232" d="M972.08,486c0.12,0.92-0.43,2.02,0.8,2.57c-0.44,0.44-0.79,0.8-1.16,1.16c-0.48,0-0.97,0-1.71,0
		c-0.13-1.04-0.77-2.12,0.57-2.98C970.98,486.3,971.25,485.6,972.08,486z"/>
	<path class="st233" d="M997.47,583.5c-1.09,0-2.18,0-3.25,0c-0.52-0.64-1.03-1.27-1.78-2.2c0.16-0.19,0.55-0.66,1.16-1.39
		c1.01,1.2,1.69,2.02,2.37,2.83C996.54,582.86,997.4,582.38,997.47,583.5z"/>
	<path class="st234" d="M1006.43,572.25c0.75-0.5,1.49-1,2.24-1.5c0.42-0.41,0.62-1.25,1.49-0.75c0.26,1.71-1.06,2.06-2.2,2.57
		c-0.04,0.58-0.07,1.15-0.12,1.93c-0.53,0-0.97,0-1.42,0C1005.88,573.75,1005.93,573,1006.43,572.25z"/>
	<path class="st235" d="M972.08,486c-0.5,0.25-1,0.5-1.49,0.75c0-0.71,0.08-1.42-0.03-2.11c-0.05-0.33-0.46-0.59-0.71-0.89
		c-0.44-0.5-0.44-1,0-1.5c0.75,0.25,1.49,0.5,2.24,0.75c2.06,0.14,0.18,1.61,0.75,2.25C972.57,485.5,972.32,485.75,972.08,486z"/>
	<path class="st236" d="M972.82,485.25c-0.45,0-0.91,0-2.09,0c0.89-0.97,1.33-1.44,1.85-2c-0.04-0.02-0.28-0.14-0.51-0.25
		c0.04-0.92,0.7-0.93,1.21-0.6c0.45,0.29,0.7,0.89,1.03,1.35c-1.12,0.06-0.63,0.93-0.75,1.5
		C973.32,485.25,973.07,485.25,972.82,485.25z"/>
	<ellipse class="st237" cx="987.76" cy="541.88" rx="1.06" ry="2.65"/>
	<path class="st238" d="M957.89,483.75c0-0.69,0-1.37,0-2.09c0.86,0.23,1.55,0.41,2.24,0.59c0.42,0.5,0.46,1,0,1.5
		c-0.25,0.25-0.5,0.5-0.75,0.75c-0.44,0.46-0.94,0.46-1.47,0.2c-0.19-0.21-0.25-0.41-0.2-0.63
		C957.77,483.86,957.83,483.75,957.89,483.75z"/>
	<path class="st195" d="M957.89,484.5c0.5,0,1,0,1.49,0c0.21,0.38,0.43,0.77,0.74,1.33c-0.74,0.06-1.49,0.11-2.23,0.17
		c-0.58,0.61-1.13,0.52-1.66-0.07c-0.11-0.32-0.11-0.64,0.01-0.96C956.7,484.5,957.15,484.02,957.89,484.5z"/>
	<path class="st239" d="M1006.43,572.25c0,0.75,0,1.5,0,2.25c-0.25,0.25-0.5,0.5-0.75,0.75c-0.41-0.5-0.46-1,0-1.5
		c-0.11-0.57,0.37-1.44-0.75-1.5c-0.44-0.5-0.44-1,0-1.5c0.84-0.44,1.08,0.33,1.49,0.75C1006.43,571.75,1006.43,572,1006.43,572.25z
		"/>
	<path class="st240" d="M956.39,485.25c0.06,1.12,0.93,0.64,1.49,0.75c0,0.5,0,1,0,1.5c-0.75-0.25-1.49-0.5-2.24-0.75
		c-0.45-0.2-0.91-0.4-1.04-0.96c0.02-0.35,0.16-0.63,0.44-0.84C955.55,484.78,956.01,484.85,956.39,485.25z"/>
	<path class="st230" d="M966.1,484.5c0-0.44,0-0.88,0-1.7c0.95,0.4,1.59,0.67,2.24,0.95c0,0.44,0,0.88,0,1.36
		C967.47,484.88,966.78,484.69,966.1,484.5z"/>
	<path class="st241" d="M998.4,577.04c1.36-0.54,2.26-0.89,3.74-1.48C1000.67,577.4,1000.67,577.4,998.4,577.04z"/>
	<path class="st242" d="M1004.94,570.75c0,0.5,0,1,0,1.5c-0.75-0.25-1.49-0.5-2.24-0.75c-0.19-0.17-0.25-0.33-0.19-0.5
		c0.06-0.17,0.13-0.25,0.19-0.25c0.05-0.46,0.04-0.87,0.72-0.44C1003.85,570.58,1004.42,570.61,1004.94,570.75z"/>
	<path class="st243" d="M998.96,582c-0.11-0.57,0.37-1.44-0.75-1.5c-0.26-0.17-0.35-0.33-0.26-0.5c0.09-0.17,0.17-0.25,0.26-0.25
		c0.34-0.29,0.69-0.58,1.69-1.42C999.48,580.09,1000.35,581.23,998.96,582z"/>
	<path class="st244" d="M1005.68,573.75c0,0.5,0,1,0,1.5c-0.25,0.5-0.5,0.5-0.75,0c-0.03-0.57-0.17-0.91-0.75-0.38
		s-0.72,0.19-0.75-0.38c-0.27-0.17-0.36-0.33-0.27-0.5c0.09-0.17,0.18-0.25,0.27-0.25c0.05-0.46,0.04-0.87,0.72-0.44
		C1004.59,573.58,1005.17,573.61,1005.68,573.75z"/>
	<path class="st245" d="M1002.7,570.75c0,0.25,0,0.5,0,0.75c-0.24,1.4-1.25,0.57-2.03,0.7c-0.09-0.31-0.18-0.63-0.35-1.22
		C1001.18,570.89,1001.94,570.82,1002.7,570.75z"/>
	<path class="st246" d="M996.72,579c-0.25-0.5-0.5-1-0.75-1.5c0.39-0.22,0.77-0.44,1.2-0.68c0.26,0.27,0.58,0.61,1.04,1.09
		C997.72,578.28,997.22,578.64,996.72,579z"/>
	<path class="st106" d="M1004.94,577.5c-0.6,0.29-1.2,0.59-2.01,0.99c-0.11-0.64-0.18-1.06-0.29-1.74c0.9,0,1.6,0,2.3,0
		c0.22,0.17,0.29,0.33,0.22,0.5C1005.08,577.42,1005.01,577.5,1004.94,577.5z"/>
	<path class="st247" d="M961.62,483c1.65,0.42,1.55,1.72,1.49,3c-0.25-0.31-0.48-0.64-0.75-0.93c-0.22-0.22-0.49-0.38-0.74-0.57
		C961.21,484,961.16,483.5,961.62,483z"/>
	<path class="st248" d="M1004.06,563.49c0.95,0.96,1.29,1.3,1.63,1.64c-0.34,0.34-0.67,0.68-1.24,1.24
		C1004.33,565.51,1004.24,564.85,1004.06,563.49z"/>
	<path class="st249" d="M1003.44,573.75c0,0.25,0,0.5,0,0.75c-0.66,0.27-1.33,0.54-2.26,0.91
		C1001.7,574.01,1002.41,573.61,1003.44,573.75z"/>
	<path class="st250" d="M1006.43,571.5c-0.5-0.25-1-0.5-1.49-0.75c0.36-0.5,0.72-1,1.49-2.06
		C1006.43,570.1,1006.43,570.8,1006.43,571.5z"/>
	<path class="st251" d="M1005.62,560.13c0,0.71,0,1.04,0,1.53c-0.75-0.33-1.39-0.62-2.48-1.1
		C1004.09,560.39,1004.68,560.29,1005.62,560.13z"/>
	<path class="st252" d="M1000.46,579.75c0.01-0.82-0.21-1.86,1.49-1.3c0,0.38,0,0.84,0,1.3
		C1001.45,580.18,1000.95,580.2,1000.46,579.75z"/>
	<path class="st253" d="M975.18,496.95c-0.34,0.41-0.67,0.83-1.3,1.6c-0.17-0.93-0.25-1.35-0.35-1.87c0.49-0.09,0.82-0.16,1.16-0.22
		C974.85,496.62,975.01,496.78,975.18,496.95z"/>
	<path class="st254" d="M961.62,483c0,0.5,0,1,0,1.5c-0.5-0.25-1-0.5-1.49-0.75c0-0.5,0-1,0-1.5c0.25,0,0.5,0,0.75,0
		C961.12,482.5,961.37,482.75,961.62,483z"/>
	<path class="st255" d="M998.62,574.31c0.27-0.27,0.65-0.65,0.99-0.99c0.02,0.14,0.08,0.47,0.17,0.99
		C999.21,574.31,998.71,574.31,998.62,574.31z"/>
	<path class="st1" d="M1004.94,577.5c0-0.25,0-0.5,0-0.75c0-0.5,0-1,0-1.5c0.25,0,0.5,0,0.75,0
		C1005.4,575.99,1006.38,577.15,1004.94,577.5z"/>
	<path class="st256" d="M998.22,579.75c0,0.25,0,0.5,0,0.75c-0.38,0.21-0.75,0.42-1.3,0.72c-0.06-0.48-0.13-0.98-0.19-1.47
		C997.22,579.75,997.72,579.75,998.22,579.75z"/>
	<path class="st1" d="M1000.46,579.75c0.5,0,1,0,1.49,0c-0.37,0.51-0.73,1.01-1.49,2.06
		C1000.46,580.65,1000.46,580.2,1000.46,579.75z"/>
	<path class="st257" d="M969.84,482.25c0,0.5,0,1,0,1.5c-0.25,0-0.5,0-0.75,0c-0.25-0.5-0.5-1-0.75-1.5
		C968.84,482.25,969.34,482.25,969.84,482.25z"/>
	<path class="st258" d="M997.27,566.06c0.12,0.63,0.18,0.96,0.28,1.46c-0.45,0.1-0.86,0.18-2.12,0.45
		C996.34,567.03,996.71,566.65,997.27,566.06z"/>
	<path class="st259" d="M1007.18,566.25c0,0.25,0,0.5,0,0.75c0,0.44,0,0.89,0,1.64C1006.26,567.24,1006.26,567.24,1007.18,566.25z"
		/>
	<path class="st260" d="M1000.52,568.69c0-0.02,0-0.35,0-0.81c0.46,0,0.87,0,1.29,0c0.08,0.11,0.16,0.22,0.23,0.33
		C1001.47,568.39,1000.91,568.57,1000.52,568.69z"/>
	<path class="st1" d="M1010.16,570c-0.5,0.25-1,0.5-1.49,0.75c0-0.25,0-0.5,0-0.75c0.06-1.12,0.93-0.64,1.49-0.75
		C1010.16,569.5,1010.16,569.75,1010.16,570z"/>
	<path class="st261" d="M997.36,570.81c0.68,0,1.01,0,1.23,0c-0.26,0.4-0.57,0.86-0.96,1.46
		C997.54,571.8,997.48,571.47,997.36,570.81z"/>
	<path class="st262" d="M951.91,552c-0.5,0-1,0-1.49,0c0-9.16,0-18.33,0-27.75c0.58,0,1.03,0,1.49,0c1.26,1.03,1.92,3.17,4.21,2.28
		c2.43-0.25,4.85-0.18,7.27-0.1c1.36,0.05,2.68,0.22,3.46,1.57c-0.01,1.03-0.79,0.74-1.33,0.74c-3.95,0.02-7.91,0.01-12.11,0.01
		c0,2.33,0,4.54,0,6.75c-0.04,1.48-0.04,2.95,0.44,4.38c-0.05,0.34-0.2,0.63-0.44,0.87c0,2.19,0,4.38,0,6.75c2.87,0,5.54,0,8.22,0
		c-0.18,2.18-1.79,2.04-3.3,2.06c-0.96-0.04-1.91,0.26-2.87,0.06C953.5,549.27,953.07,551.17,951.91,552z"/>
	<path class="st263" d="M966.85,528c-3.98,0-7.97,0-11.95,0c-0.94-1.25-0.94-2.5,0-3.75c3.98,0,7.97,0,11.95,0
		C967.92,525.48,967.92,526.78,966.85,528z"/>
	<path class="st264" d="M957.89,548.25c0.95,0,1.9,0.06,2.84-0.03c0.32-0.03,0.6-0.47,0.9-0.72c1.86,0,3.71,0,5.87,0
		c0.04,1.29,0.1,2.6,0.07,3.91c0,0.2-0.46,0.39-0.71,0.59c-2.99,0-5.97,0-8.96,0C956.78,550.75,956.78,549.5,957.89,548.25z"/>
	<path class="st265" d="M969.84,552c0-0.25-0.09-0.54,0.01-0.73c1.26-2.32,2.22-4.77,3.11-7.25c0.05-0.14,0.4-0.18,0.61-0.27
		c2.03-0.08,2.54,1.36,2.4,2.87c-0.15,1.54-0.04,3.2-0.9,4.63c0,0.25,0,0.5,0,0.75C973.32,552.59,971.58,552.59,969.84,552z"/>
	<path class="st266" d="M975.06,551.25c-0.09-0.96,0.17-2.2-0.33-2.82c-0.86-1.07,1.02-1.28,0.36-2.18c-0.57-0.78-0.4-2.03-1.52-2.5
		c-0.32-2.4,1.56-3.97,2.24-6c0.25,0.31,0.7,0.61,0.71,0.93c0.07,1.82,0.03,3.63,0.03,4.58c0.4,1.46,0.57,2.1,0.75,2.75
		C976.88,547.89,976.57,549.83,975.06,551.25z"/>
	<path class="st267" d="M960.87,535.5c1.93,0,3.85,0,5.97,0c0,1.61,0,3.06,0,4.5c-2.06,0.62-4.12,0.55-6.19,0.04
		C959.23,538.46,959.55,536.96,960.87,535.5z"/>
	<path class="st268" d="M960.87,535.5c0,1.5,0,3,0,4.5c-1.1,0.56-2.2,0.57-3.29-0.04c-1.31-1.59-1.02-3.06,0.31-4.46
		C958.88,535.5,959.88,535.5,960.87,535.5z"/>
	<path class="st269" d="M957.89,535.5c0,1.5,0,3,0,4.5c-1.1,0.56-2.2,0.57-3.29-0.04c-1.26-1.58-1.05-3.06,0.3-4.46
		C955.89,535.5,956.89,535.5,957.89,535.5z"/>
	<path class="st270" d="M954.9,535.5c0,1.5,0,3,0,4.5c-0.5,0.41-1,0.48-1.49,0c-0.37,0-0.74,0-1.3,0c0-1.4,0-2.82,0-4.5
		c0.38,0,0.84,0,1.3,0C953.9,535.5,954.4,535.5,954.9,535.5z"/>
	<path class="st271" d="M987.01,584.25c0.25,0,0.5,0,0.75,0c0.84,0.83,0.98,2.01,1.49,3c0.28,0.35,0.25,0.68-0.08,0.98
		c-0.98,0.21-1.96,0.2-2.95-0.03c-1-0.56-1.54-1.56-2.2-2.45c0.06-1.12,0.93-0.64,1.49-0.75
		C985.92,584.57,986.15,583.77,987.01,584.25z"/>
	<path class="st272" d="M984.03,585.75c1.65,0.97,3,2.63,5.23,2.25c0.19,0.17,0.25,0.33,0.19,0.5c-0.06,0.17-0.13,0.25-0.19,0.25
		c-1.54-0.13-2.9,0.02-3.13,1.99c-0.01,0.11-0.39,0.17-0.6,0.26c-0.22-0.28-0.69-0.3-0.75-0.75c-0.22-0.39-0.45-0.78-0.47-0.82
		c0.09-0.88,0.23-1.48,0.18-2.07C984.44,586.82,984.19,586.29,984.03,585.75z"/>
	<path class="st3" d="M953.41,540c0.5,0,1,0,1.49,0c1,0,1.99,0,2.99,0s1.99,0,2.99,0c1.99,0,3.98,0,5.97,0
		c-0.01,1.01-0.77,0.74-1.31,0.74c-4.04,0.02-8.09,0.01-12.13,0.01C953.41,540.5,953.41,540.25,953.41,540z"/>
	<path class="st273" d="M944.44,487.5c-0.25,0-0.5,0-0.75,0c-0.28-0.29-0.4-0.64-0.34-1.05c0.45-0.83,1.03-1.09,1.83-0.45
		c0.8,0.68,1.77,0.23,2.65,0.41c0.75,0.5,0.95,1.09,0.34,1.84c-0.25,0.5-0.5,1-0.75,1.5C945.91,489.71,944.98,488.87,944.44,487.5z"
		/>
	<path class="st274" d="M944.44,487.5c1.23,0.43,2.25,1.15,2.99,2.25c-0.06,1.12-0.93,0.64-1.49,0.75
		c-0.63-0.49-1.26-0.98-1.81-1.41c-0.43,0.24-0.8,0.45-1.18,0.66c0.06-0.65-0.33-1.55,0.92-1.54
		C944.06,488.22,944.25,487.75,944.44,487.5z"/>
	<path class="st275" d="M954.9,485.25c0,0.25,0,0.5,0,0.75c-0.14,0.56-0.37,1.06-0.75,1.5c-0.25,0.25-0.5,0.5-0.75,0.75
		c-0.49-0.51-1-1-1.49-1.5c-0.58-1.46,1.09-1.57,1.46-2.46c0.52-0.19,1.04-0.19,1.55,0.03C955.16,484.64,955.16,484.95,954.9,485.25
		z"/>
	<path class="st3" d="M948.18,488.25c-0.11-0.57,0.37-1.44-0.75-1.5c-0.16-0.12-0.31-0.25-0.47-0.38c0.16-0.12,0.31-0.25,0.47-0.38
		c0.25-0.25,0.5-0.5,0.75-0.75c0.97,0.17,1.51,1.31,2.62,1.18c0.12,0.11,0.25,0.21,0.37,0.32c-0.33,0.49-0.66,0.98-1.01,1.52
		c-0.32-0.28-0.57-0.5-0.81-0.7C948.96,487.8,948.57,488.02,948.18,488.25z"/>
	<path class="st276" d="M953.41,484.5c-0.06,0.65,0.33,1.55-0.92,1.54c-0.19,0-0.38,0.46-0.57,0.71c-0.25,0-0.5,0-0.75,0
		c-0.5-0.25-0.5-0.5,0-0.75c-0.25-0.5-0.5-1-0.75-1.5c0.5-0.44,1-0.45,1.49,0c0.25,0,0.5,0,0.75,0
		C952.91,484.2,953.16,484.2,953.41,484.5z"/>
	<path class="st3" d="M969.84,552c1.74,0,3.49,0,5.23,0C973.49,553.04,971.4,553.04,969.84,552z"/>
	<path class="st277" d="M989.25,587.25c-0.98-0.76-1.55-1.72-1.49-3c0.82,0.25,1.66,0.46,2.46,0.77c0.23,0.09,0.35,0.48,0.52,0.73
		c-0.44,0-0.87,0-1.49,0C989.25,586.38,989.25,586.81,989.25,587.25z"/>
	<path class="st3" d="M945.94,490.5c-0.25,0.75-0.5,1.5-0.75,2.25c-0.72,0.22-1.02,0.03-0.75-0.75c0-0.44,0-0.88,0-1.5
		C945.07,490.5,945.5,490.5,945.94,490.5z"/>
	<path class="st278" d="M991.49,585.75c0.49-0.57,0.98-1.13,1.87-2.17c0.19,1.14,0.28,1.65,0.37,2.17
		C992.99,586.26,992.24,586.26,991.49,585.75z"/>
	<path class="st252" d="M991.49,585.75c0.75,0,1.49,0,2.24,0c0.24,0.11,0.47,0.23,1.54,0.75c-1.92,0-2.96,0.04-3.99-0.03
		c-0.2-0.01-0.36-0.47-0.54-0.72C991,585.75,991.24,585.75,991.49,585.75z"/>
	<path class="st279" d="M989.25,588.75c0-0.25,0-0.5,0-0.75s0-0.5,0-0.75c0.71,0,1.41,0,2.23,0
		C990.99,588.46,990.3,588.9,989.25,588.75z"/>
	<path class="st280" d="M984.77,590.25c0.25,0.25,0.5,0.5,0.75,0.75c-1.24,0-2.49,0-3.73,0c0.25-0.25,0.5-0.5,0.75-0.75
		C983.28,590.25,984.03,590.25,984.77,590.25z"/>
	<path class="st126" d="M948.92,489.75c0.63-0.17,1.26-0.34,2.09-0.57c0.61,1.18-0.47,1.57-1.34,2.07
		C949.27,490.83,948.42,490.63,948.92,489.75z"/>
	<path class="st281" d="M951.05,497.56c0.34-0.41,0.67-0.83,1.3-1.6c0.17,0.93,0.25,1.35,0.35,1.87c-0.49,0.09-0.82,0.16-1.16,0.22
		C951.38,497.89,951.22,497.72,951.05,497.56z"/>
	<ellipse class="st282" cx="952.66" cy="487.5" rx="1.06" ry="1.06"/>
	<path class="st283" d="M987.01,584.25c-0.5,0.25-1,0.5-1.49,0.75c0.19-1.22,0.19-1.22,1.49-2.3
		C987.01,583.34,987.01,583.8,987.01,584.25z"/>
	<path class="st3" d="M948.92,489.75c0.25,0.5,0.5,1,0.75,1.5c-0.46,0-0.91,0-1.94,0C948.36,490.47,948.64,490.11,948.92,489.75z"/>
	<path class="st284" d="M944.44,492c0.25,0.25,0.5,0.5,0.75,0.75c-0.2,1.06-0.89,1.01-1.39,0.4
		C943.48,492.76,943.57,492.02,944.44,492z"/>
	<path class="st285" d="M994.31,577.03c-1.04,0.38-1.59,0.57-1.84,0.66C992.29,576.91,992.29,576.91,994.31,577.03z"/>
	<path class="st286" d="M954.15,487.5c0.11-0.57-0.37-1.44,0.75-1.5c0.25,0.25,0.5,0.5,0.75,0.75
		C955.15,487,954.65,487.25,954.15,487.5z"/>
	<path class="st287" d="M948.71,493.81c-0.23,0.37-0.52,0.83-0.98,1.58C947.58,493.57,947.58,493.57,948.71,493.81z"/>
	<path class="st288" d="M945.19,486c-0.57,0.11-1.43-0.37-1.49,0.75c-0.5,0.48-1,0.41-1.49,0c0.5-1.1,1.27-1.91,2.7-2.5
		C945.02,484.97,945.1,485.49,945.19,486z"/>
	<path class="st289" d="M954.9,485.25c0-0.25,0-0.5,0-0.75c-0.5-0.25-0.5-0.5,0-0.75c0.39-0.45,0.77-0.9,1.28-1.49
		c0.07,0.51,0.14,1,0.21,1.49c0.45,0.5,0.43,1,0,1.5C955.89,485.25,955.4,485.25,954.9,485.25z"/>
	<path class="st290" d="M951.16,486c0,0.25,0,0.5,0,0.75c-1.27,0.06-2.57,0.16-2.99-1.5c0.5-0.47,1-0.42,1.49,0
		C949.73,486.37,950.6,485.89,951.16,486z"/>
	<path class="st291" d="M942.2,486.75c0.5,0,1,0,1.49,0c0,0.25,0,0.5,0,0.75c-1.08-0.09-2.11,0.04-2.99,0.75
		c-0.23-0.17-0.31-0.33-0.23-0.5c0.08-0.17,0.16-0.25,0.23-0.25C940.77,486.38,941.64,486.87,942.2,486.75z"/>
	<path class="st292" d="M949.67,485.25c-0.5,0-1,0-1.49,0c-0.22-0.39-0.45-0.78-0.72-1.27C948.78,483.3,949.18,484.37,949.67,485.25
		z"/>
	<path class="st293" d="M951.91,484.5c-0.5,0-1,0-1.49,0c0-0.37,0-0.74,0-1.11C951.79,482.94,951.79,482.94,951.91,484.5z"/>
	<path class="st58" d="M940.71,487.5c0,0.25,0,0.5,0,0.75c-0.06,1.12-0.93,0.64-1.49,0.75c0-0.25,0-0.5,0-0.75
		c0.25-0.25,0.5-0.5,0.75-0.75C940.21,487.5,940.46,487.5,940.71,487.5z"/>
	<path class="st289" d="M947.43,486c0,0.25,0,0.5,0,0.75c-0.74-0.29-1.89,0.7-2.24-0.75C945.94,486,946.68,486,947.43,486z"/>
	<path class="st294" d="M956.39,485.25c0-0.5,0-1,0-1.5c0.5,0,1,0,1.49,0c0,0.25,0,0.5,0,0.75
		C957.39,484.75,956.89,485,956.39,485.25z"/>
	<path class="st295" d="M954.9,483.75c0,0.25,0,0.5,0,0.75c-0.5,0-1,0-1.49,0c-0.25,0-0.5,0-0.75,0c0-0.25,0-0.5,0-0.75
		c0.25-0.36,0.5-0.36,0.75,0C953.9,483.75,954.4,483.75,954.9,483.75z"/>
	<path class="st296" d="M953.41,483.75c-0.25,0-0.5,0-0.75,0c0-0.45,0-0.91,0-1.43c0.56,0,0.89,0,1.4,0
		C953.81,482.86,953.61,483.31,953.41,483.75z"/>
	<path class="st297" d="M963.86,483c-0.5-0.5-1-1-1.49-1.5c0.44,0,0.87,0,1.49,0C963.86,482.13,963.86,482.57,963.86,483z"/>
	<path class="st298" d="M954.9,524.25c0.22,0.39,0.44,0.78,0.68,1.2c-0.18,0.17-0.44,0.42-0.71,0.67c0.27,0.26,0.53,0.5,0.71,0.67
		c-0.24,0.43-0.46,0.81-0.68,1.2c-0.94,0-1.88,0-2.99,0c0-1.38,0-2.56,0-3.75C952.91,524.25,953.9,524.25,954.9,524.25z"/>
	<path class="st299" d="M951.91,552c0-1.19,0-2.38,0-3.75c1.11,0,2.05,0,2.99,0c1.11,1.25,1.11,2.5,0,3.75
		C953.9,552,952.91,552,951.91,552z"/>
	<ellipse class="st300" cx="956.39" cy="550.13" rx="2.11" ry="2.65"/>
	<path class="st301" d="M936.97,491.25c0,0.25,0,0.5,0,0.75c-0.64,0.8-1.27,1.6-2.12,2.66c-0.41-0.54-0.64-0.85-0.87-1.16
		c0.25-0.25,0.5-0.5,0.75-0.75c0.38-0.61,0.89-1.11,1.49-1.5C936.48,491.25,936.73,491.25,936.97,491.25z"/>
	<path class="st302" d="M936.23,491.25c-0.5,0.5-1,1-1.49,1.5c0-0.44,0-0.88,0-1.5C935.36,491.25,935.79,491.25,936.23,491.25z"/>
	<path class="st303" d="M949.67,592.5c-0.75,0-1.49,0-2.24,0c-0.21-0.17-0.41-0.34-0.62-0.5c0.21-0.08,0.41-0.16,0.62-0.25
		c0.75,0,1.49,0,2.24,0C949.67,592,949.67,592.25,949.67,592.5z"/>
	<path class="st304" d="M1003.3,500.24c0.03,0.73,0.07,1.46,0.1,2.19c-0.17,0.01-0.33,0.03-0.5,0.04c-0.1-0.73-0.19-1.46-0.29-2.19
		C1002.84,500.27,1003.07,500.25,1003.3,500.24z"/>
	<path class="st305" d="M984.03,489c-0.75,0.25-1.49,0.5-2.24,0.75c-0.25-0.25-0.5-0.5-0.75-0.75c0.82-0.25,1.64-0.53,2.48-0.71
		C983.63,488.27,983.85,488.75,984.03,489z"/>
	<path class="st306" d="M981.78,486.75c0.25,0,0.5,0,0.75,0c0.44,0,0.88,0,1.63,0C982.76,487.68,982.76,487.68,981.78,486.75z"/>
	<path class="st307" d="M978.05,485.25c-0.25,0.25-0.5,0.5-0.75,0.75c-0.5,0-1,0-1.49,0c0-0.44,0-0.88,0-1.5c0.62,0,1.06,0,1.49,0
		C977.55,484.75,977.8,485,978.05,485.25z"/>
	<path class="st308" d="M1015.39,537.75c0.5-0.5,1-1,1.49-1.5c0,0.5,0,1,0,1.5c-0.39,0.45-0.77,0.9-1.28,1.49
		C1015.53,538.73,1015.46,538.24,1015.39,537.75z"/>
	<path class="st309" d="M1016.89,526.5c0.25,0,0.5,0,0.75,0c0,0.75,0,1.5,0,2.25c-0.25,0-0.5,0-0.75,0
		C1016.36,528,1016.36,527.25,1016.89,526.5z"/>
	<ellipse class="st178" cx="1016.51" cy="527.63" rx="0.53" ry="1.59"/>
</g>
</svg>
